<svg width="455" height="376" viewBox="0 0 455 376" fill="none" xmlns="http://www.w3.org/2000/svg">
<path fill-rule="evenodd" clip-rule="evenodd" d="M341.418 376L341.175 375.597L455 188L341.175 0.403102L341.418 0H113.582L113.825 0.403134L0 188L113.825 375.597L113.582 376H341.418ZM159.438 73.7263V301.226H221.738C254.171 301.226 278.905 291.543 295.938 272.176C313.205 252.576 321.838 224.343 321.838 187.476C321.838 150.61 313.088 122.493 295.588 103.126C278.321 83.5264 253.355 73.7263 220.688 73.7263H159.438ZM218.588 262.726H201.438V112.226H218.588C239.355 112.226 254.638 118.41 264.438 130.776C274.238 142.91 279.138 161.81 279.138 187.476C279.138 213.143 274.238 232.16 264.438 244.526C254.638 256.66 239.355 262.726 218.588 262.726Z" fill="white"/>
</svg>
