<svg width="400" height="400" viewBox="0 0 400 400" fill="none" xmlns="http://www.w3.org/2000/svg">
<rect x="6.5" y="6.5" width="387" height="387" rx="32.5" fill="#003E54" stroke="#38CDE6" stroke-width="13"/>
<rect x="97.1366" y="283.5" width="41.0683" height="41.75" fill="#38CDE6"/>
<rect x="97.1366" y="74.75" width="41.0683" height="41.75" fill="#38CDE6"/>
<path d="M97.5929 74.75L169.121 200H26.0654L97.5929 74.75Z" fill="#38CDE6"/>
<path d="M97.5929 325.25L26.0654 200L169.121 200L97.5929 325.25Z" fill="#38CDE6"/>
<rect width="41.0683" height="41.75" transform="matrix(-1 0 0 1 302.478 283.5)" fill="#38CDE6"/>
<rect width="41.0683" height="41.75" transform="matrix(-1 0 0 1 302.478 74.75)" fill="#38CDE6"/>
<path d="M302.022 74.75L230.494 200H373.549L302.022 74.75Z" fill="#38CDE6"/>
<path d="M302.022 325.25L373.549 200L230.494 200L302.022 325.25Z" fill="#38CDE6"/>
<path d="M130.448 74.75L201.975 200H58.92L130.448 74.75Z" fill="#003E54"/>
<path d="M272.818 74.75L344.345 200H201.29L272.818 74.75Z" fill="#003E54"/>
<path d="M201.633 200L130.105 74.75L273.16 74.75L201.633 200Z" fill="#003E54"/>
<path d="M272.818 325.25L201.29 200L344.345 200L272.818 325.25Z" fill="#003E54"/>
<path d="M130.448 325.25L58.92 200L201.975 200L130.448 325.25Z" fill="#003E54"/>
<path d="M201.633 200L273.16 325.25L130.105 325.25L201.633 200Z" fill="#003E54"/>
<path d="M150.31 285V116H195.81C220.077 116 238.623 123.28 251.45 137.84C264.45 152.227 270.95 173.113 270.95 200.5C270.95 227.887 264.537 248.86 251.71 263.42C239.057 277.807 220.683 285 196.59 285H150.31ZM181.51 256.4H194.25C209.677 256.4 221.03 251.893 228.31 242.88C235.59 233.693 239.23 219.567 239.23 200.5C239.23 181.433 235.59 167.393 228.31 158.38C221.03 149.193 209.677 144.6 194.25 144.6H181.51V256.4Z" fill="white"/>
</svg>
