<svg width="602" height="601" viewBox="0 0 602 601" fill="none" xmlns="http://www.w3.org/2000/svg">
<rect width="602" height="601" rx="39" fill="url(#paint0_linear_3_7)"/>
<path d="M138.684 0.00012207H463.316C539.593 0.00012207 601 61.407 601 137.684V462.316C601 538.593 539.593 600 463.316 600H138.684C62.4071 600 1 538.593 1 462.316V137.684C1 61.407 62.4071 0.00012207 138.684 0.00012207Z" fill="url(#paint1_linear_3_7)"/>
<path d="M132.458 170.625C129.297 170.625 126.319 171.17 123.5 172.291L179.958 230.416L237.041 289.583L238.083 290.833L239.75 292.5L241.416 294.166L244.75 297.708L293.708 347.916C294.523 348.423 296.886 350.611 298.731 351.534C301.108 352.722 303.685 353.817 306.341 353.912C309.207 354.015 312.137 353.194 314.715 351.939C316.647 350.999 317.506 349.652 319.75 347.916L376.416 289.375L433.708 230.416L488.917 173.541C485.372 171.621 481.447 170.625 477.25 170.625H132.458ZM115.166 177.708C109.146 183.413 105.375 191.989 105.375 201.666V392.5C105.375 400.335 107.891 407.453 112.041 412.916L119.958 405.416L178.916 348.125L231.208 297.5L230.166 296.25L172.875 237.291L115.583 178.125L115.166 177.708ZM496.417 179.583L440.583 237.291L383.5 296.25L382.458 297.291L436.833 350L495.792 407.291L499.333 410.625C502.508 405.531 504.333 399.257 504.333 392.5V201.666C504.333 193.038 501.343 185.213 496.417 179.583ZM237.875 304.375L185.791 355L126.625 412.291L119.125 419.583C123.079 422.129 127.578 423.75 132.458 423.75H477.25C483.116 423.75 488.437 421.493 492.875 417.916L489.125 414.166L429.958 356.875L375.583 304.375L326.625 354.791C323.975 356.548 322.204 358.496 319.617 359.693C315.453 361.618 310.889 363.247 306.302 363.177C301.703 363.106 297.193 361.307 293.065 359.276C290.993 358.257 289.889 357.244 287.458 355.208L237.875 304.375Z" fill="white"/>
<defs>
<linearGradient id="paint0_linear_3_7" x1="301" y1="0" x2="301" y2="601" gradientUnits="userSpaceOnUse">
<stop stop-color="#5770FF"/>
<stop offset="1" stop-color="#70EFFF"/>
</linearGradient>
<linearGradient id="paint1_linear_3_7" x1="305.201" y1="597.591" x2="305.785" y2="7.24353" gradientUnits="userSpaceOnUse">
<stop stop-color="#70EFFF"/>
<stop offset="1" stop-color="#5770FF"/>
</linearGradient>
</defs>
</svg>
