<svg width="376" height="376" viewBox="0 0 376 376" fill="none" xmlns="http://www.w3.org/2000/svg">
<path fill-rule="evenodd" clip-rule="evenodd" d="M334.222 376H41.7778C18.7045 376 0 357.295 0 334.222V41.7778C0 18.7046 18.7045 0 41.7778 0H334.222C357.295 0 376 18.7046 376 41.7778V334.222C376 357.295 357.295 376 334.222 376ZM267.982 323.778H323.778V209.156C323.778 160.659 296.286 137.21 257.887 137.21C219.469 137.21 203.302 167.126 203.302 167.126V142.741H149.53V323.778H203.302V228.744C203.302 203.281 215.023 188.128 237.458 188.128C258.081 188.128 267.982 202.689 267.982 228.744V323.778ZM52.2222 85.6288C52.2222 104.077 67.0641 119.035 85.3799 119.035C103.696 119.035 118.529 104.077 118.529 85.6288C118.529 67.1805 103.696 52.2222 85.3799 52.2222C67.0641 52.2222 52.2222 67.1805 52.2222 85.6288ZM113.685 323.778H57.6144V142.741H113.685V323.778Z" fill="white"/>
</svg>
