<svg width="425" height="270" viewBox="0 0 425 270" fill="none" xmlns="http://www.w3.org/2000/svg">
<path d="M28.7924 0C25.4316 0 22.2654 0.580711 19.2688 1.77479L79.2899 63.6706L139.975 126.676L141.083 128.007L142.855 129.782L144.627 131.556L148.17 135.328L200.218 188.793C201.085 189.333 203.596 191.663 205.558 192.645C208.085 193.911 210.824 195.077 213.648 195.178C216.695 195.287 219.809 194.413 222.551 193.077C224.605 192.076 225.518 190.642 227.903 188.793L288.146 126.454L349.053 63.6706L407.745 3.10588C403.977 1.0609 399.804 0 395.342 0H28.7924ZM10.4096 7.54286C4.00886 13.6178 0 22.7505 0 33.0555V236.269C0 244.613 2.67547 252.193 7.08737 258.01L15.5036 250.024L78.1825 189.015L133.774 135.106L132.667 133.775L71.7596 70.9916L10.8525 7.98656L10.4096 7.54286ZM415.718 9.5395L356.362 70.9916L295.676 133.775L294.569 134.884L352.375 191.012L415.054 252.02L418.819 255.57C422.194 250.146 424.135 243.464 424.135 236.269V33.0555C424.135 23.8672 420.956 15.5351 415.718 9.5395ZM140.861 142.427L85.4914 196.336L22.591 257.345L14.6177 265.109C18.8212 267.821 23.6048 269.546 28.7924 269.546H395.342C401.579 269.546 407.236 267.143 411.953 263.334L407.967 259.341L345.066 198.333L287.26 142.427L235.212 196.114C232.395 197.985 230.513 200.06 227.762 201.334C223.335 203.384 218.483 205.119 213.607 205.044C208.717 204.969 203.922 203.052 199.534 200.89C197.331 199.805 196.157 198.726 193.574 196.558L140.861 142.427Z" fill="white"/>
</svg>
