<svg width="400" height="400" viewBox="0 0 400 400" fill="none" xmlns="http://www.w3.org/2000/svg">
<g clip-path="url(#clip0_14_45)">
<mask id="mask0_14_45" style="mask-type:alpha" maskUnits="userSpaceOnUse" x="0" y="0" width="400" height="400">
<path d="M200 0C89.5469 0 0 89.5469 0 200C0 310.453 89.5469 400 200 400C310.453 400 400 310.453 400 200C400 89.5469 310.453 0 200 0ZM134.54 32.507C115.06 53.6938 99.6336 84.1672 90.2 120.001H38.8664C58.7336 80.2664 92.8664 48.8469 134.54 32.507ZM20 200C20 178.907 23.9664 158.807 30.6734 140H85.7469C82.1469 158.98 80 179.034 80 200C80 220.966 82.1469 241.02 85.7398 260H30.6734C23.9664 241.193 20 221.094 20 200ZM38.8664 280H90.2C99.6398 315.834 115.06 346.306 134.54 367.493C92.8664 351.153 58.7336 319.734 38.8664 280ZM190 379.053C155.773 372.606 126.034 333.553 110.813 280H190V379.053ZM190 260H106.047C102.2 241.12 100 220.94 100 200C100 179.06 102.2 158.88 106.047 140H190V260ZM190 120H110.813C126.034 66.4469 155.773 27.393 190 20.9469V120ZM361.134 120H309.8C300.36 84.1664 284.94 53.693 265.46 32.5063C307.134 48.8469 341.266 80.2664 361.134 120ZM210 20.9469C244.227 27.3938 273.966 66.4469 289.187 120H210V20.9469ZM210 140H293.953C297.8 158.88 300 179.06 300 200C300 220.94 297.8 241.12 293.953 260H210V140ZM210 379.053V280H289.187C273.966 333.553 244.227 372.607 210 379.053ZM265.46 367.493C284.94 346.3 300.36 315.833 309.8 280H361.134C341.266 319.734 307.134 351.153 265.46 367.493ZM314.253 260C317.853 241.02 320 220.966 320 200C320 179.034 317.853 158.98 314.26 140H369.334C376.034 158.807 380 178.907 380 200C380 221.094 376.034 241.193 369.327 260H314.253Z" fill="black"/>
</mask>
<g mask="url(#mask0_14_45)">
<rect x="-78" y="-272" width="568" height="746" fill="white"/>
</g>
</g>
<defs>
<clipPath id="clip0_14_45">
<rect width="400" height="400" fill="white"/>
</clipPath>
</defs>
</svg>
