<?xml version="1.0" standalone="no"?>
<!DOCTYPE svg PUBLIC "-//W3C//DTD SVG 20010904//EN"
 "http://www.w3.org/TR/2001/REC-SVG-20010904/DTD/svg10.dtd">
<svg version="1.0" xmlns="http://www.w3.org/2000/svg"
 width="700.000000pt" height="700.000000pt" viewBox="0 0 700.000000 700.000000"
 preserveAspectRatio="xMidYMid meet">
<metadata>
Created by potrace 1.14, written by Peter Selinger 2001-2017
</metadata>
<g transform="translate(0.000000,700.000000) scale(0.100000,-0.100000)"
fill="#000000" stroke="none">
<path d="M3240 6994 c-385 -34 -738 -118 -1072 -255 -893 -367 -1605 -1102
-1943 -2004 -296 -791 -296 -1666 0 -2465 64 -171 217 -478 319 -637 355 -556
827 -980 1411 -1268 375 -186 719 -288 1140 -342 173 -21 604 -24 770 -5 687
81 1301 334 1820 749 147 117 374 340 499 489 446 533 713 1157 798 1869 20
165 16 635 -6 800 -106 790 -442 1484 -985 2034 -561 569 -1264 913 -2086
1021 -81 11 -581 21 -665 14z m944 -2290 c26 -9 63 -32 82 -51 28 -28 34 -41
34 -78 0 -38 -4 -47 -32 -69 -18 -13 -184 -106 -368 -206 -372 -203 -536 -298
-685 -398 -118 -79 -128 -101 -73 -155 33 -33 35 -33 213 -55 543 -67 909
-203 1010 -375 51 -88 40 -170 -38 -280 -174 -244 -654 -530 -1242 -742 -151
-54 -379 -115 -433 -115 -48 0 -82 24 -82 57 0 39 99 132 220 208 93 59 454
242 923 469 146 71 165 83 236 154 93 93 126 153 118 219 -6 53 -29 87 -83
125 -87 60 -219 92 -749 183 -325 55 -468 103 -501 167 -44 85 13 159 251 329
460 328 796 530 999 601 93 32 134 34 200 12z"/>
</g>
</svg>
