<svg width="3000" height="1798" viewBox="0 0 3000 1798" fill="none" xmlns="http://www.w3.org/2000/svg">
<g clip-path="url(#clip0_38_70)">
<rect width="3000" height="1800" fill="url(#paint0_linear_38_70)"/>
<mask id="mask0_38_70" style="mask-type:alpha" maskUnits="userSpaceOnUse" x="1039" y="748" width="922" height="305">
<g clip-path="url(#clip1_38_70)">
<path fill-rule="evenodd" clip-rule="evenodd" d="M1254.55 753.696C1245.02 753.704 1235.89 757.492 1229.15 764.229C1222.42 770.965 1218.63 780.099 1218.62 789.625C1218.63 799.152 1222.42 808.286 1229.15 815.021C1235.89 821.757 1245.02 825.542 1254.55 825.546C1264.08 825.54 1273.21 821.753 1279.95 815.016C1286.69 808.279 1290.47 799.144 1290.48 789.617C1290.47 780.093 1286.68 770.962 1279.94 764.228C1273.21 757.494 1264.08 753.706 1254.55 753.696ZM1423.35 838.586C1366.3 838.586 1322.88 888.539 1321.97 944.397C1321.69 961.932 1325.44 978.397 1332.06 992.129C1294.38 1003.12 1287.08 985.058 1285.8 951.043C1284.25 910.066 1284.08 852.121 1284.08 852.121H1223.8V971.216C1223.8 995.909 1229.8 1034.22 1272.51 1041.84C1299.13 1046.59 1325.11 1041.34 1359.87 1025.59C1376.5 1037.5 1398.67 1045.28 1423.1 1045.28C1456.87 1045.28 1484.36 1030.41 1504.8 1016.74V979.09C1479.4 995.436 1442.2 1007.26 1419.17 990.413C1442.7 974.058 1465.18 954.42 1479.94 930.861C1503.49 893.31 1488.14 838.586 1423.35 838.586ZM1146.77 844.247C1087.33 844.247 1039 880.546 1039 945.869C1039 1012.29 1085.8 1046.26 1141.61 1046.26C1157.77 1046.26 1183.04 1043.03 1197.71 1035.69V984.507C1185.01 989.428 1170.1 991.397 1158.34 991.397C1134.24 991.397 1105.93 977.168 1105.93 947.105C1105.93 912.743 1132.68 899.861 1159.32 899.861C1172.17 899.861 1186.76 903.767 1197.71 906.995V852.609C1182.56 848.074 1161.17 844.247 1146.77 844.247ZM1822.96 844.743C1794.8 844.814 1768.76 851.98 1743.72 860.239V908.712C1765.38 900.665 1791.55 896.901 1811.88 896.901C1837.92 896.901 1850.27 908.216 1850.27 928.161V931.35C1839.22 927.413 1821.84 923.972 1804.01 923.972C1758.71 923.972 1728.46 944.554 1728.46 984.507V985.239C1728.46 1023.77 1756.42 1044.79 1793.19 1044.79C1818.5 1044.79 1836.81 1035.31 1850.02 1020.67V1040.61H1915.48V929.625C1915.48 902.499 1910.91 882.609 1896.28 868.35C1880.97 853.003 1857.54 844.657 1822.95 844.728L1822.96 844.743ZM1648.5 844.98C1621.71 844.98 1604.26 860.121 1591.91 875.987L1589.2 879.436V850.153H1524.48V1040.61H1589.2V936.279C1589.2 914.507 1601.86 902.318 1619.22 902.318C1636.28 902.318 1647.76 914.602 1647.76 936.279V1040.61H1712.72V914.625C1712.72 871.428 1688.57 844.98 1648.5 844.98ZM1427.04 892.476C1443.53 892.791 1454.61 908.877 1435.17 933.57C1426.2 944.917 1412.96 955.869 1397.27 966.05C1375.38 925.877 1402.53 897.523 1419.91 893.46C1421.15 893.168 1422.39 892.854 1423.6 892.72C1424.73 892.602 1425.94 892.452 1427.04 892.476ZM1824.68 956.696C1834.69 956.696 1843.58 959.609 1851.01 962.854C1851.03 987.562 1837.16 1002.46 1817.54 1002.46C1803.65 1002.46 1793.68 994.499 1793.68 981.302V980.57C1793.68 966.318 1805.08 956.696 1824.68 956.696ZM1948.94 1016.99C1942.45 1016.99 1937.13 1021.98 1937.13 1028.8C1937.13 1035.48 1942.45 1040.61 1948.94 1040.61C1955.43 1040.61 1961 1035.58 1961 1028.8C1961 1022.08 1955.43 1016.99 1948.94 1016.99H1948.94ZM1948.94 1018.7C1954.48 1018.7 1959.03 1023.07 1959.03 1028.8C1959.03 1034.55 1954.48 1038.88 1948.94 1038.88C1943.38 1038.88 1939.1 1034.45 1939.1 1028.8C1939.1 1022.97 1943.38 1018.7 1948.94 1018.7H1948.94ZM1944.76 1021.91V1035.69H1946.48V1029.78H1948.94L1952.63 1035.69H1954.84L1950.91 1029.78C1952.94 1029.56 1954.61 1028.55 1954.61 1026.08C1954.61 1023.36 1952.95 1021.91 1949.68 1021.91H1944.76ZM1946.48 1023.63H1949.43C1950.91 1023.63 1952.63 1023.94 1952.63 1025.85C1952.63 1028.02 1950.86 1028.05 1948.94 1028.05H1946.48V1023.63Z" fill="#DA1415"/>
</g>
</mask>
<g mask="url(#mask0_38_70)">
<rect x="836.16" y="560.65" width="1454.55" height="893.971" fill="white"/>
</g>
<path d="M2999.5 670C2916.57 670 2834.45 652.618 2757.84 618.847C2681.22 585.076 2611.6 535.577 2552.96 473.176C2494.32 410.775 2447.81 336.694 2416.07 255.163C2384.33 173.632 2368 86.2483 2368 -2.00003L2605.23 -2.00002C2605.23 53.0975 2615.42 107.655 2635.24 158.559C2655.05 209.462 2684.09 255.714 2720.71 294.674C2757.32 333.634 2800.78 364.538 2848.62 385.623C2896.45 406.708 2947.72 417.56 2999.5 417.56V670Z" fill="url(#paint1_linear_38_70)"/>
<path d="M0 1064C90.7434 1064 180.598 1083.04 264.434 1120.02C348.27 1157.01 424.446 1211.23 488.611 1279.57C552.776 1347.91 603.675 1429.05 638.401 1518.35C673.127 1607.64 691 1703.35 691 1800L431.423 1800C431.423 1739.66 420.264 1679.9 398.583 1624.15C376.902 1568.4 345.124 1517.74 305.062 1475.07C265.001 1432.4 217.441 1398.55 165.098 1375.46C112.756 1352.37 56.6553 1340.48 0 1340.48V1064Z" fill="url(#paint2_linear_38_70)"/>
</g>
<defs>
<linearGradient id="paint0_linear_38_70" x1="3.82463e-05" y1="1800" x2="2688" y2="260" gradientUnits="userSpaceOnUse">
<stop stop-color="#FF0001"/>
<stop offset="1" stop-color="#A8006A"/>
</linearGradient>
<linearGradient id="paint1_linear_38_70" x1="2999.5" y1="670" x2="2297.31" y2="82.4807" gradientUnits="userSpaceOnUse">
<stop stop-color="#A9016A"/>
<stop offset="1" stop-color="#D90042"/>
</linearGradient>
<linearGradient id="paint2_linear_38_70" x1="691" y1="1800" x2="-77.9334" y2="1157.23" gradientUnits="userSpaceOnUse">
<stop stop-color="#D20047"/>
<stop offset="1" stop-color="#E80033"/>
</linearGradient>
<clipPath id="clip0_38_70">
<rect width="3000" height="1798" fill="white"/>
</clipPath>
<clipPath id="clip1_38_70">
<rect width="922" height="304.26" fill="white" transform="translate(1039 748)"/>
</clipPath>
</defs>
</svg>
