<svg width="3000" height="1800" viewBox="0 0 3000 1800" fill="none" xmlns="http://www.w3.org/2000/svg">
<rect width="3000" height="1800" fill="#0F0F0F"/>
<path d="M2483.5 896C2483.5 1069.08 2432.53 1206.4 2283.05 1302.11C2131.19 1399.34 1875.03 1455.5 1459.23 1455.5C1043.46 1455.5 784.588 1399.35 630.052 1302.03C553.277 1253.68 502.246 1195.16 470.206 1127.86C438.058 1060.34 424.5 982.858 424.5 896C424.5 809.137 438.06 732.195 470.169 665.465C502.166 598.97 553.138 541.446 629.895 494.068C784.452 398.667 1043.37 344.5 1459.23 344.5C1875.12 344.5 2131.33 398.68 2283.2 493.987C2358.6 541.301 2408.3 598.762 2439.36 665.254C2470.56 732.013 2483.5 809.018 2483.5 896Z" fill="#2A2A2A" stroke="#4F4F4F" stroke-width="41"/>
<path d="M2493.5 387.795C2493.5 417.55 2488.17 436.627 2477.26 448.589C2466.69 460.18 2446.76 469.5 2406.54 469.5C2366.33 469.5 2346.02 460.184 2335.16 448.465C2324.03 436.456 2318.5 417.368 2318.5 387.795C2318.5 358.209 2324.04 339.595 2335.02 327.98C2345.83 316.556 2366.14 307.5 2406.54 307.5C2446.95 307.5 2466.89 316.562 2477.4 327.857C2488.16 339.423 2493.5 358.024 2493.5 387.795Z" fill="#2A2A2A" stroke="#4F4F4F" stroke-width="41"/>
<path d="M2609.5 1475.82C2609.5 1488.27 2607.05 1498.08 2602.03 1506.2C2597.03 1514.3 2588.41 1522.43 2573.17 1529.73C2541.69 1544.81 2485.97 1554.5 2391.19 1554.5C2296.46 1554.5 2240.05 1544.82 2207.91 1529.67C2192.3 1522.32 2183.38 1514.12 2178.2 1505.97C2173.03 1497.85 2170.5 1488.11 2170.5 1475.82C2170.5 1463.52 2173.03 1453.91 2178.14 1445.96C2183.28 1437.97 2192.15 1429.92 2207.77 1422.71C2239.95 1407.85 2296.39 1398.5 2391.19 1398.5C2486.03 1398.5 2541.79 1407.86 2573.31 1422.66C2588.56 1429.82 2597.13 1437.79 2602.08 1445.73C2607.05 1453.68 2609.5 1463.36 2609.5 1475.82Z" fill="#2A2A2A" stroke="#4F4F4F" stroke-width="41"/>
<path d="M2695.5 1181.49C2695.5 1225.77 2690.04 1257.37 2677.42 1277.58C2666.17 1295.61 2647.3 1307.5 2610.53 1307.5C2573.74 1307.5 2554.53 1295.59 2543.03 1277.45C2530.2 1257.24 2524.5 1225.65 2524.5 1181.49C2524.5 1137.3 2530.21 1106.33 2542.93 1086.69C2554.31 1069.12 2573.45 1057.5 2610.53 1057.5C2647.59 1057.5 2666.39 1069.1 2677.52 1086.57C2690.02 1106.2 2695.5 1137.18 2695.5 1181.49Z" fill="#2A2A2A" stroke="#4F4F4F" stroke-width="41"/>
<path d="M663.5 1470.78C663.5 1501.29 658.221 1521 647.401 1533.34C637.085 1545.09 617.75 1554.5 578.528 1554.5C539.318 1554.5 519.618 1545.09 509.015 1533.21C497.979 1520.84 492.5 1501.11 492.5 1470.78C492.5 1440.43 497.987 1421.19 508.878 1409.22C519.415 1397.65 539.117 1388.5 578.528 1388.5C617.953 1388.5 637.288 1397.65 647.537 1409.1C658.212 1421.02 663.5 1440.26 663.5 1470.78Z" fill="#2A2A2A" stroke="#4F4F4F" stroke-width="41"/>
<path d="M431.5 1278.14C431.5 1338.19 424.321 1382.72 406.516 1411.89C390.088 1438.8 362.758 1455.5 312.697 1455.5C262.613 1455.5 234.867 1438.77 218.102 1411.76C200.002 1382.59 192.5 1338.08 192.5 1278.14C192.5 1218.16 200.016 1174.44 218.003 1146.03C234.639 1119.76 262.321 1103.5 312.697 1103.5C363.054 1103.5 390.316 1119.74 406.612 1145.9C424.307 1174.31 431.5 1218.04 431.5 1278.14Z" fill="#2A2A2A" stroke="#4F4F4F" stroke-width="41"/>
<path d="M638.5 323.49C638.5 366.372 630.051 396.138 609.977 415.786C589.692 435.641 553.119 449.5 486.364 449.5C419.631 449.5 382.52 435.65 361.765 415.668C341.289 395.954 332.5 366.164 332.5 323.49C332.5 280.812 341.289 251.644 361.616 232.463C382.334 212.914 419.465 199.5 486.364 199.5C553.287 199.5 589.879 212.924 610.125 232.347C630.049 251.46 638.5 280.6 638.5 323.49Z" fill="#2A2A2A" stroke="#4F4F4F" stroke-width="41"/>
<path d="M876.5 269.865C876.5 296.672 871.848 313.378 862.885 323.616C854.435 333.267 838.215 341.5 803.965 341.5C769.728 341.5 753.174 333.27 744.469 323.49C735.321 313.212 730.5 296.498 730.5 269.865C730.5 243.215 735.329 226.941 744.332 217.027C752.971 207.514 769.526 199.5 803.965 199.5C838.419 199.5 854.638 207.519 863.02 216.902C871.839 226.774 876.5 243.038 876.5 269.865Z" fill="#2A2A2A" stroke="#4F4F4F" stroke-width="41"/>
<path d="M1370 724.5C1370 724.264 1370 724.146 1370.07 724.073C1370.15 723.999 1370.27 724 1370.5 724.001C1385.6 724.088 1400.42 728.103 1413.5 735.656C1426.73 743.292 1437.71 754.274 1445.34 767.5C1452.98 780.726 1457 795.728 1457 811C1457 826.272 1452.98 841.274 1445.34 854.5C1437.71 867.726 1426.73 878.708 1413.5 886.344C1400.27 893.98 1385.27 898 1370 898C1354.73 898 1339.73 893.98 1326.5 886.344C1313.42 878.792 1302.53 867.965 1294.91 854.932C1294.79 854.729 1294.73 854.628 1294.76 854.527C1294.78 854.427 1294.88 854.368 1295.09 854.25L1369.75 811.144C1369.87 811.074 1369.93 811.039 1369.97 810.981C1370 810.923 1370 810.852 1370 810.711L1370 724.5Z" fill="#D6D6D6"/>
<circle cx="1370" cy="811" r="125" stroke="#D6D6D6" stroke-width="18"/>
<path d="M1487.86 1176.7C1494.47 1176.7 1500.62 1175.33 1506.31 1172.59C1523.4 1164.39 1531.95 1147.19 1531.95 1120.98V1038.61C1520.78 1033.14 1509.16 1030.41 1497.09 1030.41C1486.38 1030.41 1477.03 1033.6 1469.06 1039.98C1452.2 1053.19 1443.77 1076.66 1443.77 1110.39C1443.77 1127.7 1446.96 1142.17 1453.34 1153.79C1461.77 1169.06 1473.27 1176.7 1487.86 1176.7ZM1531.95 941.197H1549.72V1157.55C1549.72 1162.11 1550.06 1165.87 1550.75 1168.83C1552.34 1175.44 1557.13 1178.29 1565.1 1177.38L1565.79 1191.05C1562.37 1191.51 1559.07 1191.73 1555.88 1191.73C1541.29 1191.05 1533.43 1181.71 1532.29 1163.71C1521.13 1182.16 1505.18 1191.51 1484.44 1191.73C1472.13 1191.73 1461.08 1187.75 1451.29 1179.77C1433.74 1165.42 1424.97 1142.52 1424.97 1111.07C1424.97 1087.14 1429.75 1066.75 1439.32 1049.89C1452.31 1026.87 1471 1015.37 1495.38 1015.37C1507.23 1015.37 1519.42 1017.76 1531.95 1022.54V941.197ZM1713.79 1178.4C1696.24 1187.06 1679.38 1191.51 1663.2 1191.73C1648.62 1191.73 1635.86 1188.2 1624.92 1181.14C1602.59 1166.33 1591.42 1140.35 1591.42 1103.21C1591.42 1081.79 1595.52 1063.56 1603.73 1048.52C1615.8 1026.42 1633.58 1015.37 1657.05 1015.37C1695.33 1016.73 1715.38 1044.08 1717.2 1097.4V1104.92H1610.22C1610.45 1119.73 1612.73 1132.49 1617.06 1143.2C1626.17 1165.3 1642.35 1176.35 1665.59 1176.35C1679.04 1176.35 1693.16 1172.71 1707.97 1165.42L1713.79 1178.4ZM1657.05 1030.06C1651.35 1030.06 1646 1031.09 1640.98 1033.14C1623.44 1040.89 1613.41 1059.91 1610.9 1090.22L1699.09 1089.88C1699.09 1081.45 1698.29 1073.59 1696.7 1066.29C1691.23 1042.14 1678.01 1030.06 1657.05 1030.06ZM1854.61 1177.04C1837.74 1186.61 1820.77 1191.51 1803.68 1191.73C1791.6 1191.73 1780.89 1188.54 1771.55 1182.16C1750.81 1168.04 1740.45 1141.83 1740.45 1103.55C1740.45 1082.36 1744.32 1064.24 1752.07 1049.21C1763.69 1026.65 1781.35 1015.37 1805.04 1015.37C1808.92 1015.37 1812.79 1015.71 1816.67 1016.39C1835.81 1020.27 1849.48 1032.23 1857.68 1052.28L1843.33 1058.78C1833.98 1040.09 1821 1030.63 1804.36 1030.41C1797.07 1030.41 1790.46 1032.23 1784.54 1035.88C1767.68 1046.36 1759.24 1069.03 1759.24 1103.89C1759.24 1116.88 1760.61 1128.5 1763.35 1138.76C1770.64 1163.82 1785.33 1176.35 1807.44 1176.35C1820.65 1176.35 1834.44 1172.37 1848.79 1164.39L1854.61 1177.04ZM1996.45 1191.73C1988.48 1191.51 1981.18 1186.04 1974.58 1175.33L1929.8 1096.37H1901.77V1189H1884.34V941.197H1901.77V1081.68H1934.59L1977.99 1018.1H1997.13L1945.87 1091.93L1988.93 1167.81C1989.62 1168.95 1990.3 1170.09 1990.98 1171.23C1993.72 1175.56 1996.57 1177.72 1999.53 1177.72H2002.95L2003.97 1191.05C2001.01 1191.51 1998.5 1191.73 1996.45 1191.73Z" fill="#D6D6D6"/>
<path d="M1070.48 903.664C1080.87 903.664 1090.54 901.516 1099.49 897.219C1126.34 884.328 1139.77 857.294 1139.77 816.115V686.672C1122.23 678.078 1103.96 673.781 1084.99 673.781C1068.16 673.781 1053.48 678.794 1040.94 688.82C1014.45 709.589 1001.2 746.47 1001.2 799.465C1001.2 826.678 1006.21 849.416 1016.24 867.678C1029.49 891.669 1047.57 903.664 1070.48 903.664ZM1139.77 533.596H1167.7V873.586C1167.7 880.747 1168.24 886.656 1169.31 891.311C1171.82 901.695 1179.34 906.171 1191.87 904.738L1192.95 926.223C1187.57 926.939 1182.38 927.297 1177.37 927.297C1154.45 926.223 1142.1 911.542 1140.31 883.254C1122.76 912.258 1097.7 926.939 1065.11 927.297C1045.78 927.297 1028.41 921.031 1013.01 908.498C985.442 885.939 971.656 849.953 971.656 800.539C971.656 762.941 979.176 730.894 994.215 704.396C1014.62 668.231 1043.99 650.148 1082.3 650.148C1100.92 650.148 1120.08 653.908 1139.77 661.428V533.596ZM1689.23 913.332C1673.84 922.284 1658.98 926.939 1644.65 927.297C1637.13 927.297 1629.97 926.044 1623.17 923.537C1599.18 914.227 1587.18 892.027 1587.18 856.936V677.541H1542.6V654.445H1587.18V581.936H1614.58V654.445H1681.18V677.541H1614.58V850.49C1614.58 853.713 1614.76 857.115 1615.11 860.695C1617.62 889.341 1629.79 903.664 1651.64 903.664C1660.23 903.664 1670.08 900.799 1681.18 895.07L1689.23 913.332Z" fill="#D6D6D6"/>
</svg>
