<svg width="1313" height="1313" viewBox="0 0 1313 1313" fill="none" xmlns="http://www.w3.org/2000/svg">
<circle cx="656" cy="656" r="617" fill="#313131"/>
<circle cx="656.489" cy="656.266" r="636" stroke="url(#paint0_linear_53_421)" stroke-width="40"/>
<path d="M486.929 902.915C479.116 897.707 478.791 890.871 485.952 882.407C493.765 873.293 505.809 863.853 522.085 854.087C539.012 843.671 558.543 832.928 580.679 821.861C602.814 810.793 623.973 800.376 644.155 790.611C664.989 780.845 683.218 772.381 698.843 765.22C714.468 757.407 724.559 751.548 729.116 747.642C750.601 729.413 761.668 714.439 762.319 702.72C763.621 690.35 758.413 680.585 746.694 673.423C734.976 665.611 718.374 659.751 696.89 655.845C676.056 651.288 654.246 647.381 631.46 644.126C609.325 640.22 587.84 636.314 567.007 632.407C546.825 628.501 531.525 623.293 521.108 616.782C510.692 610.272 507.111 601.809 510.366 591.392C514.272 580.324 528.595 566.327 553.335 549.4C562.45 542.889 575.796 533.449 593.374 521.079C610.952 508.71 629.832 496.014 650.015 482.993C670.848 469.973 691.356 458.254 711.538 447.837C731.72 437.421 748.647 430.585 762.319 427.329C769.481 426.027 776.642 426.678 783.804 429.282C791.616 431.887 797.801 435.793 802.358 441.001C806.916 445.559 808.869 450.767 808.218 456.626C808.218 462.486 803.986 467.694 795.522 472.251C758.413 493.085 722.606 512.616 688.101 530.845C654.246 549.074 620.067 569.907 585.562 593.345C583.608 598.553 583.934 603.111 586.538 607.017C589.793 610.923 593.374 613.853 597.28 615.806C666.291 622.967 718.049 633.059 752.554 646.079C787.71 659.1 809.845 673.423 818.96 689.048C828.726 704.673 827.749 721.275 816.03 738.853C804.312 756.431 786.733 773.684 763.296 790.611C740.509 807.538 714.142 823.488 684.194 838.462C654.246 853.436 625.275 866.131 597.28 876.548C569.937 886.965 545.848 894.777 525.015 899.986C504.181 905.194 491.486 906.171 486.929 902.915Z" fill="#FAFAFA"/>
<defs>
<linearGradient id="paint0_linear_53_421" x1="46.2286" y1="836.763" x2="1223.59" y2="487.742" gradientUnits="userSpaceOnUse">
<stop stop-color="#FFD918"/>
<stop offset="0.25" stop-color="#EE5B25"/>
<stop offset="0.495" stop-color="#EF2E2E"/>
<stop offset="0.755" stop-color="#FF25C1"/>
<stop offset="1" stop-color="#B223FF"/>
</linearGradient>
</defs>
</svg>
