<svg width="3000" height="1800" viewBox="0 0 3000 1800" fill="none" xmlns="http://www.w3.org/2000/svg">
<g clip-path="url(#clip0_89_125)">
<rect width="3000" height="1800" fill="black"/>
<rect width="3000" height="1800" fill="#1C3871"/>
<g opacity="0.69" clip-path="url(#clip1_89_125)">
<path fill-rule="evenodd" clip-rule="evenodd" d="M1163.81 917.247L1556.43 1597.31L1376 1599L1271.17 1416.29L1165.6 1598.02L1075.95 1597.99L1030.04 1518.67L1180.44 1260.07L1073.67 1074.29L1163.81 917.247Z" fill="#5277C3"/>
<path fill-rule="evenodd" clip-rule="evenodd" d="M1305.52 637.123L912.828 1317.15L821.144 1161.74L926.977 979.621L716.794 979.069L672 901.417L717.742 821.994L1016.92 822.939L1124.44 637.594L1305.52 637.123Z" fill="#7EBAE4"/>
<path fill-rule="evenodd" clip-rule="evenodd" d="M1335.65 1180.72L2120.96 1180.76L2032.21 1337.85L1821.56 1337.27L1926.17 1519.55L1881.31 1597.17L1789.65 1597.27L1640.88 1337.73L1426.59 1337.3L1335.65 1180.72Z" fill="#7EBAE4"/>
<path fill-rule="evenodd" clip-rule="evenodd" d="M1792.73 882.753L1400.1 202.692L1580.54 201L1685.36 383.707L1790.93 201.976L1880.58 202.012L1926.5 281.333L1776.09 539.929L1882.86 725.708L1792.73 882.753Z" fill="#7EBAE4"/>
<path fill-rule="evenodd" clip-rule="evenodd" d="M1163.81 917.247L1556.43 1597.31L1376 1599L1271.17 1416.29L1165.6 1598.02L1075.95 1597.99L1030.04 1518.67L1180.44 1260.07L1073.67 1074.29L1163.81 917.247Z" fill="#5277C3"/>
<path fill-rule="evenodd" clip-rule="evenodd" d="M1619.84 617.559L834.527 617.521L923.279 460.427L1133.93 461.011L1029.32 278.728L1074.18 201.113L1165.84 201.012L1314.61 460.551L1528.89 460.986L1619.84 617.559Z" fill="#5277C3"/>
<path fill-rule="evenodd" clip-rule="evenodd" d="M1650.48 1162.73L2043.17 482.711L2134.86 638.112L2029.02 820.235L2239.21 820.787L2284 898.439L2238.26 977.862L1939.08 976.917L1831.56 1162.26L1650.48 1162.73Z" fill="#5277C3"/>
<path fill-rule="evenodd" clip-rule="evenodd" d="M1164.27 916.81L1556.9 1596.87L1376.46 1598.56L1271.64 1415.86L1166.07 1597.59L1076.42 1597.55L1030.5 1518.23L1180.91 1259.63L1074.14 1073.85L1164.27 916.81Z" fill="url(#paint0_linear_89_125)"/>
<path fill-rule="evenodd" clip-rule="evenodd" d="M1305.99 636.686L913.295 1316.71L821.611 1161.31L927.444 979.184L717.262 978.631L672.466 900.98L718.208 821.557L1017.38 822.502L1124.9 637.157L1305.99 636.686Z" fill="url(#paint1_linear_89_125)"/>
<path fill-rule="evenodd" clip-rule="evenodd" d="M1336.11 1180.28L2121.43 1180.32L2032.68 1337.42L1822.02 1336.83L1926.64 1519.12L1881.78 1596.73L1790.12 1596.83L1641.35 1337.29L1427.06 1336.86L1336.11 1180.28Z" fill="url(#paint2_linear_89_125)"/>
<path fill-rule="evenodd" clip-rule="evenodd" d="M1793.19 882.316L1400.57 202.256L1581 200.563L1685.83 383.27L1791.4 201.54L1881.05 201.575L1926.96 280.897L1776.56 539.492L1883.33 725.272L1793.19 882.316Z" fill="url(#paint3_linear_89_125)"/>
<path fill-rule="evenodd" clip-rule="evenodd" d="M1164.27 916.81L1556.9 1596.87L1376.46 1598.56L1271.64 1415.86L1166.07 1597.59L1076.42 1597.55L1030.5 1518.23L1180.91 1259.63L1074.14 1073.85L1164.27 916.81Z" fill="url(#paint4_linear_89_125)"/>
<path fill-rule="evenodd" clip-rule="evenodd" d="M1619.73 617.279L834.416 617.24L923.168 460.146L1133.82 460.73L1029.21 278.448L1074.07 200.832L1165.73 200.731L1314.49 460.27L1528.78 460.705L1619.73 617.279Z" fill="url(#paint5_linear_89_125)"/>
<path fill-rule="evenodd" clip-rule="evenodd" d="M1650.59 1162.34L2043.28 482.314L2134.96 637.715L2029.13 819.838L2239.31 820.39L2284.11 898.041L2238.37 977.464L1939.19 976.519L1831.67 1161.86L1650.59 1162.34Z" fill="url(#paint6_linear_89_125)"/>
</g>
<g filter="url(#filter0_d_89_125)">
<path d="M630.66 771.7V761.2H695.06L795.86 975.4L784.31 1002H738.81L630.66 771.7ZM828.41 900.85H827.01L803.56 957.55L773.46 893.15L828.41 761.2H894.91V1002H828.41V900.85ZM630.66 806.35L695.06 943.55V1002H630.66V806.35ZM937.528 741.95H1002.28V792.35H937.528V741.95ZM937.528 823.5H1002.28V1002H937.528V823.5ZM1157.97 871.45C1152.13 870.517 1143.73 870.05 1132.77 870.05C1125.53 870.05 1120.4 870.517 1117.37 871.45V820.7C1133.93 820.933 1151.08 823.033 1168.82 827V872.5L1157.97 871.45ZM1114.92 1004.8C1096.72 1004.8 1082.25 1002.58 1071.52 998.15C1060.78 993.717 1052.85 987.183 1047.72 978.55C1043.05 971.083 1040.02 962.333 1038.62 952.3C1037.45 942.267 1036.87 929.2 1036.87 913.1C1036.87 898.4 1037.45 886.15 1038.62 876.35C1039.78 866.55 1042.23 857.917 1045.97 850.45C1050.4 841.817 1057.05 835.167 1065.92 830.5C1075.02 825.6 1087.27 822.567 1102.67 821.4V912.75C1102.67 923.017 1102.9 930.717 1103.37 935.85C1104.07 940.983 1105.35 944.95 1107.22 947.75C1109.32 950.55 1112.23 952.533 1115.97 953.7C1119.93 954.867 1125.53 955.45 1132.77 955.45C1145.13 955.45 1153.65 955.1 1158.32 954.4L1170.22 953V998.5C1152.95 1002.7 1134.52 1004.8 1114.92 1004.8ZM1284.26 833.65C1289.16 828.983 1294.88 825.717 1301.41 823.85C1308.18 821.75 1316.46 820.7 1326.26 820.7V879.15C1315.76 879.15 1307.13 879.85 1300.36 881.25C1293.83 882.65 1288.46 885.1 1284.26 888.6V833.65ZM1204.81 823.5H1269.56V1002H1204.81V823.5ZM1451.54 913.1C1451.54 901.2 1451.42 893.267 1451.19 889.3C1450.95 883.7 1450.25 879.5 1449.09 876.7C1447.92 873.667 1446.05 871.8 1443.49 871.1C1440.69 870.4 1436.84 870.05 1431.94 870.05H1427.04V820.7H1431.94C1452.24 820.7 1468.1 822.333 1479.54 825.6C1490.97 828.633 1499.49 833.767 1505.09 841C1510.22 847.533 1513.49 856.283 1514.89 867.25C1516.52 877.983 1517.34 893.267 1517.34 913.1C1517.34 931.533 1516.75 945.883 1515.59 956.15C1514.65 966.183 1512.2 974.467 1508.24 981C1503.8 988.233 1497.15 993.717 1488.29 997.45C1479.42 1000.95 1467.17 1003.17 1451.54 1004.1V913.1ZM1431.94 1004.8C1411.64 1004.8 1395.77 1003.28 1384.34 1000.25C1372.9 997.217 1364.39 992.083 1358.79 984.85C1353.65 978.317 1350.27 969.683 1348.64 958.95C1347.24 948.217 1346.54 932.933 1346.54 913.1C1346.54 894.9 1347.12 880.667 1348.29 870.4C1349.45 860.133 1352.02 851.617 1355.99 844.85C1360.19 837.383 1366.72 831.9 1375.59 828.4C1384.45 824.667 1396.7 822.333 1412.34 821.4V913.1C1412.34 925 1412.45 932.817 1412.69 936.55C1412.92 942.15 1413.62 946.35 1414.79 949.15C1415.95 951.95 1417.94 953.7 1420.74 954.4C1423.07 955.1 1426.8 955.45 1431.94 955.45H1436.84V1004.8H1431.94ZM1602.13 991.85C1599.1 982.517 1596.41 973.417 1594.08 964.55L1582.88 926.05C1579.15 913.45 1576.23 904 1574.13 897.7C1572.26 890.7 1570.75 885.45 1569.58 881.95L1533.88 761.2H1605.28L1670.73 1002H1605.28L1602.13 991.85ZM1657.08 895.25L1692.43 761.2H1762.43L1726.73 881.95L1713.78 926.05C1709.58 939.583 1705.73 952.417 1702.23 964.55C1699.9 973.417 1697.21 982.517 1694.18 991.85L1691.03 1002H1686.13L1657.08 895.25ZM1784.16 741.95H1848.91V792.35H1784.16V741.95ZM1784.16 823.5H1848.91V1002H1784.16V823.5ZM2021.05 872.15C2016.62 871.917 2010.55 871.333 2002.85 870.4C1988.38 869 1976.72 868.3 1967.85 868.3H1956.3V820.7C1972.87 820.7 1988.62 821.867 2003.55 824.2L2021.05 827.35V872.15ZM1970.3 947.75C1970.3 944.25 1969.72 942.033 1968.55 941.1C1967.38 940.167 1964.93 939.467 1961.2 939L1923.4 933.75C1914.07 932.35 1906.48 930.133 1900.65 927.1C1895.05 924.067 1890.85 919.983 1888.05 914.85C1885.25 910.417 1883.38 905.05 1882.45 898.75C1881.52 892.45 1881.05 884.633 1881.05 875.3C1881.05 856.167 1886.77 842.167 1898.2 833.3C1907.77 826.3 1922.23 822.217 1941.6 821.05V876C1941.6 879.5 1942.07 881.833 1943 883C1943.93 883.933 1946.85 884.75 1951.75 885.45L1993.75 891.05C1999.82 891.75 2005.07 893.033 2009.5 894.9C2013.93 896.533 2017.67 899.1 2020.7 902.6C2027.47 910.067 2030.85 924.417 2030.85 945.65C2030.85 968.05 2025.13 983.683 2013.7 992.55C2003.67 1000.02 1989.2 1003.98 1970.3 1004.45V947.75ZM1955.6 1004.8C1936.93 1004.57 1920.6 1003.4 1906.6 1001.3L1886.65 998.15V953.35C1895.98 954.283 1908.58 955.217 1924.45 956.15C1933.32 956.617 1939.62 956.85 1943.35 956.85H1955.6V1004.8ZM2162.82 913.1C2162.82 901.2 2162.7 893.267 2162.47 889.3C2162.23 883.7 2161.53 879.5 2160.37 876.7C2159.2 873.667 2157.33 871.8 2154.77 871.1C2151.97 870.4 2148.12 870.05 2143.22 870.05H2138.32V820.7H2143.22C2163.52 820.7 2179.38 822.333 2190.82 825.6C2202.25 828.633 2210.77 833.767 2216.37 841C2221.5 847.533 2224.77 856.283 2226.17 867.25C2227.8 877.983 2228.62 893.267 2228.62 913.1C2228.62 931.533 2228.03 945.883 2226.87 956.15C2225.93 966.183 2223.48 974.467 2219.52 981C2215.08 988.233 2208.43 993.717 2199.57 997.45C2190.7 1000.95 2178.45 1003.17 2162.82 1004.1V913.1ZM2143.22 1004.8C2122.92 1004.8 2107.05 1003.28 2095.62 1000.25C2084.18 997.217 2075.67 992.083 2070.07 984.85C2064.93 978.317 2061.55 969.683 2059.92 958.95C2058.52 948.217 2057.82 932.933 2057.82 913.1C2057.82 894.9 2058.4 880.667 2059.57 870.4C2060.73 860.133 2063.3 851.617 2067.27 844.85C2071.47 837.383 2078 831.9 2086.87 828.4C2095.73 824.667 2107.98 822.333 2123.62 821.4V913.1C2123.62 925 2123.73 932.817 2123.97 936.55C2124.2 942.15 2124.9 946.35 2126.07 949.15C2127.23 951.95 2129.22 953.7 2132.02 954.4C2134.35 955.1 2138.08 955.45 2143.22 955.45H2148.12V1004.8H2143.22ZM2342.81 833.65C2347.71 828.983 2353.42 825.717 2359.96 823.85C2366.72 821.75 2375.01 820.7 2384.81 820.7V879.15C2374.31 879.15 2365.67 879.85 2358.91 881.25C2352.37 882.65 2347.01 885.1 2342.81 888.6V833.65ZM2263.36 823.5H2328.11V1002H2263.36V823.5Z" fill="white"/>
</g>
</g>
<defs>
<filter id="filter0_d_89_125" x="630.66" y="741.95" width="1779.15" height="270.85" filterUnits="userSpaceOnUse" color-interpolation-filters="sRGB">
<feFlood flood-opacity="0" result="BackgroundImageFix"/>
<feColorMatrix in="SourceAlpha" type="matrix" values="0 0 0 0 0 0 0 0 0 0 0 0 0 0 0 0 0 0 127 0" result="hardAlpha"/>
<feOffset dx="21" dy="4"/>
<feGaussianBlur stdDeviation="2"/>
<feComposite in2="hardAlpha" operator="out"/>
<feColorMatrix type="matrix" values="0 0 0 0 0 0 0 0 0 0 0 0 0 0 0 0 0 0 0.49 0"/>
<feBlend mode="normal" in2="BackgroundImageFix" result="effect1_dropShadow_89_125"/>
<feBlend mode="normal" in="SourceGraphic" in2="effect1_dropShadow_89_125" result="shape"/>
</filter>
<linearGradient id="paint0_linear_89_125" x1="1041.21" y1="938.169" x2="1328.7" y2="1435.45" gradientUnits="userSpaceOnUse">
<stop stop-color="#699AD7"/>
<stop offset="0.243452" stop-color="#7EB1DD"/>
<stop offset="1" stop-color="#7EBAE4"/>
</linearGradient>
<linearGradient id="paint1_linear_89_125" x1="1225.95" y1="540.797" x2="939.082" y2="1038.44" gradientUnits="userSpaceOnUse">
<stop stop-color="#699AD7"/>
<stop offset="0.243452" stop-color="#7EB1DD"/>
<stop offset="1" stop-color="#7EBAE4"/>
</linearGradient>
<linearGradient id="paint2_linear_89_125" x1="1293.08" y1="1297.53" x2="1867.53" y2="1297.17" gradientUnits="userSpaceOnUse">
<stop stop-color="#699AD7"/>
<stop offset="0.243452" stop-color="#7EB1DD"/>
<stop offset="1" stop-color="#7EBAE4"/>
</linearGradient>
<linearGradient id="paint3_linear_89_125" x1="1916.26" y1="860.957" x2="1628.76" y2="363.673" gradientUnits="userSpaceOnUse">
<stop stop-color="#699AD7"/>
<stop offset="0.243452" stop-color="#7EB1DD"/>
<stop offset="1" stop-color="#7EBAE4"/>
</linearGradient>
<linearGradient id="paint4_linear_89_125" x1="1070.93" y1="921.254" x2="1353.32" y2="1420.47" gradientUnits="userSpaceOnUse">
<stop stop-color="#415E9A"/>
<stop offset="0.231686" stop-color="#4A6BAF"/>
<stop offset="1" stop-color="#5277C3"/>
</linearGradient>
<linearGradient id="paint5_linear_89_125" x1="1662.56" y1="534.223" x2="1088.99" y2="529.199" gradientUnits="userSpaceOnUse">
<stop stop-color="#415E9A"/>
<stop offset="0.231686" stop-color="#4A6BAF"/>
<stop offset="1" stop-color="#5277C3"/>
</linearGradient>
<linearGradient id="paint6_linear_89_125" x1="1701.11" y1="1240.95" x2="1992.21" y2="746.754" gradientUnits="userSpaceOnUse">
<stop stop-color="#415E9A"/>
<stop offset="0.231686" stop-color="#4A6BAF"/>
<stop offset="1" stop-color="#5277C3"/>
</linearGradient>
<clipPath id="clip0_89_125">
<rect width="3000" height="1800" fill="white"/>
</clipPath>
<clipPath id="clip1_89_125">
<rect width="1612" height="1398" fill="white" transform="translate(672 201)"/>
</clipPath>
</defs>
</svg>
