<svg width="3000" height="1800" viewBox="0 0 3000 1800" fill="none" xmlns="http://www.w3.org/2000/svg">
<rect width="3000" height="1800" fill="#0458A7"/>
<path d="M1517.41 443C1366.5 443 1244.2 565.697 1244.2 716.212C1244.2 867.245 1366.5 989.426 1517.41 989.426C1668.24 989.426 1790.63 867.245 1790.63 716.213C1790.63 566.588 1670.25 443 1517.41 443ZM1440.31 520.1L1516.89 773.131L1517.41 773.649L1517.93 773.132L1594.51 520.1L1693.34 844.54H1674.72C1674.72 844.54 1662.32 787.889 1642.12 753.986C1631.06 736.02 1614.19 721.346 1591.41 721.904C1575.18 722.131 1560.9 730.184 1543.8 754.504C1533.16 769.158 1517.41 806.249 1517.41 806.249C1517.41 806.249 1501.64 769.158 1491.02 754.504C1473.61 730.184 1459.87 722.132 1443.93 721.905C1421.02 721.345 1403.94 736.02 1392.71 753.986C1372.57 787.889 1360.11 844.54 1360.11 844.54H1341.48L1440.31 520.1Z" fill="white"/>
<path d="M1125.59 1262.15C1101.23 1262.15 1083.82 1272.13 1079.17 1289.5C1078.5 1291.87 1078.16 1294.08 1078.16 1296.03C1078.23 1309.96 1093.38 1312.75 1108.02 1314.59C1122.83 1316.41 1137.09 1317.53 1136.88 1326.14C1136.88 1326.98 1136.89 1327.88 1136.63 1328.9C1134.14 1338.29 1122.11 1345.47 1103.76 1345.46C1088.92 1345.42 1080.19 1340.23 1080.17 1331.15C1080.17 1329.96 1080.34 1328.75 1080.67 1327.39L1080.92 1326.64H1066.37L1066.12 1327.14C1065.69 1329.44 1065.62 1331.62 1065.62 1333.66C1065.66 1349.18 1078.14 1356.48 1100.49 1356.5C1126.91 1356.5 1145.83 1345.89 1150.68 1327.89C1151.24 1325.73 1151.68 1323.57 1151.68 1321.62C1151.7 1313.51 1146.31 1307.53 1135.12 1305.56L1103.51 1299.79C1095.06 1298.27 1092.74 1295.08 1092.72 1291.51C1092.72 1290.69 1092.75 1289.86 1092.97 1289C1095.5 1279.48 1107.77 1273.18 1120.32 1273.19C1133.59 1273.2 1144.14 1276.05 1144.16 1285.74C1144.16 1286.57 1144.06 1287.56 1143.9 1288.5V1289H1158.21L1158.46 1288.75C1158.89 1286.67 1158.96 1284.77 1158.96 1282.98C1158.92 1266.75 1142.22 1262.17 1125.59 1262.15ZM1238 1262.15C1200.46 1262.15 1180.73 1288.05 1175.02 1309.33C1173.82 1313.77 1173.01 1318.28 1173.01 1322.87C1173.01 1331.53 1175.54 1339.97 1181.79 1346.21C1188.05 1352.47 1198.07 1356.5 1212.91 1356.5C1250.45 1356.5 1270.18 1330.87 1275.89 1309.58C1277.08 1305.11 1277.65 1300.36 1277.65 1295.78C1277.65 1287.11 1275.36 1278.69 1269.12 1272.44C1262.86 1266.18 1252.84 1262.15 1238 1262.15ZM1708.49 1262.15C1670.94 1262.15 1651.2 1288.04 1645.51 1309.33C1644.3 1313.78 1643.75 1318.3 1643.75 1322.87C1643.75 1331.53 1646.02 1339.97 1652.28 1346.21C1658.53 1352.46 1668.55 1356.51 1683.4 1356.5C1720.93 1356.5 1740.67 1330.86 1746.38 1309.58C1747.57 1305.12 1748.39 1300.36 1748.39 1295.78C1748.39 1287.11 1745.85 1278.69 1739.61 1272.44C1733.35 1266.18 1723.33 1262.15 1708.49 1262.15ZM1937.34 1262.15C1912.99 1262.15 1895.58 1272.13 1890.92 1289.5C1890.26 1291.87 1889.91 1294.08 1889.91 1296.03C1889.98 1309.94 1905.14 1312.74 1919.77 1314.59C1934.59 1316.41 1949.09 1317.53 1948.88 1326.14C1948.88 1326.98 1948.66 1327.88 1948.38 1328.9C1945.9 1338.29 1934.11 1345.46 1915.76 1345.46C1900.91 1345.42 1891.94 1340.21 1891.92 1331.15C1891.92 1329.95 1892.1 1328.75 1892.42 1327.39L1892.67 1326.64H1878.12V1327.14C1877.68 1329.44 1877.37 1331.62 1877.37 1333.66C1877.41 1349.18 1889.91 1356.48 1912.24 1356.5C1938.68 1356.5 1957.6 1345.89 1962.43 1327.89C1963 1325.72 1963.43 1323.56 1963.43 1321.62C1963.47 1313.5 1958.07 1307.53 1946.87 1305.56L1915.26 1299.79C1906.81 1298.27 1904.48 1295.08 1904.47 1291.51C1904.47 1290.69 1904.75 1289.86 1904.97 1289C1907.51 1279.5 1919.52 1273.18 1932.07 1273.19C1945.34 1273.2 1955.88 1276.05 1955.91 1285.74C1955.91 1286.57 1955.81 1287.55 1955.66 1288.5V1289H1970.21V1288.75C1970.64 1286.67 1970.96 1284.77 1970.96 1282.98C1970.92 1266.75 1953.97 1262.17 1937.34 1262.15ZM1310.27 1264.41L1310.02 1264.91L1286.18 1354.24H1366.73L1369.49 1343.2H1302.74L1324.07 1264.41H1310.27ZM1780.51 1264.41L1756.42 1354.24H1770.22L1790.29 1279.22L1824.17 1354.24H1842.24L1866.33 1264.41H1852.52V1264.91L1832.45 1339.69L1798.57 1264.41H1780.51ZM1401.36 1264.66L1387.05 1317.86C1385.88 1322.25 1385.3 1326.23 1385.3 1329.9C1385.33 1347.55 1398.6 1356.46 1418.67 1356.5C1442.94 1356.5 1463.77 1343.61 1470.61 1318.11L1485.17 1264.66H1471.36L1471.11 1264.91L1456.81 1318.61C1452.28 1335.36 1439.58 1345.44 1421.43 1345.46C1406.73 1345.39 1399.39 1338.94 1399.35 1327.64C1399.35 1324.94 1399.74 1322.08 1400.6 1318.86L1415.16 1264.66H1401.36ZM1506.75 1264.66L1503.48 1276.46H1541.12L1520.3 1354.24H1534.1L1554.92 1276.46H1592.56L1595.82 1264.66H1506.75ZM1618.16 1264.66V1264.91L1594.07 1354.24H1607.87L1631.96 1264.66H1618.16ZM1235.24 1273.19C1252.69 1273.24 1262.79 1282.93 1262.84 1298.28C1262.84 1301.69 1262.39 1305.41 1261.34 1309.32C1255.53 1331 1236.97 1345.46 1215.67 1345.46C1198.2 1345.41 1187.85 1335.96 1187.82 1320.62C1187.82 1317.21 1188.52 1313.49 1189.57 1309.58C1195.41 1287.9 1213.91 1273.19 1235.24 1273.19ZM1705.73 1273.19C1723.2 1273.23 1733.53 1282.93 1733.58 1298.28C1733.58 1301.69 1732.88 1305.41 1731.83 1309.32C1726.01 1330.99 1707.48 1345.46 1686.16 1345.46C1668.69 1345.42 1658.6 1335.97 1658.56 1320.62C1658.56 1317.21 1659.03 1313.49 1660.06 1309.58C1665.9 1287.91 1684.43 1273.19 1705.73 1273.19Z" fill="white"/>
<path d="M1226.24 1102.98C1219.54 1103.05 1211.64 1103.97 1205.53 1105.23C1179.23 1110.46 1146.33 1133.85 1152.15 1164.33C1156.94 1189.82 1191.36 1203.64 1230.23 1196C1266.74 1189.02 1290.5 1161.02 1285.61 1136.4C1280.52 1112.17 1252.09 1102.98 1226.24 1102.98ZM1480.95 1102.98C1474.1 1103.05 1466.15 1103.97 1459.99 1105.23C1433.84 1110.46 1400.64 1133.85 1406.36 1164.33C1411.34 1189.82 1446.02 1203.64 1484.94 1196C1521.35 1189.02 1544.95 1161.02 1539.82 1136.4C1534.98 1112.17 1506.66 1102.98 1480.95 1102.98ZM1757.61 1102.98C1750.66 1103.05 1743.07 1103.97 1736.65 1105.23C1710.7 1110.46 1677.5 1133.85 1683.27 1164.33C1688.1 1189.82 1722.64 1203.64 1761.35 1196C1797.86 1189.02 1821.71 1161.02 1816.48 1136.4C1811.69 1112.17 1783.21 1102.98 1757.61 1102.98ZM1101.01 1106.22L1068.58 1144.13L1057.35 1106.72H1012.94L987 1194.5H1014.94L1029.16 1146.12L1041.88 1194.5H1059.84L1101.01 1149.12L1087.79 1194.5H1123.46L1148.16 1106.22H1101.01ZM1300.83 1106.22L1293.6 1135.15H1330.52L1316.3 1194.5H1350.72L1366.19 1134.9H1403.86L1410.35 1106.72L1300.83 1106.22ZM1980.88 1106.22L1921.26 1194.5H1950.94L1961.17 1179.29L1961.42 1178.79H2003.58V1179.29L2007.32 1194.5H2042L2022.04 1106.22H1980.88ZM1566.76 1106.72L1541.57 1194.5H1574.25L1581.73 1168.07L1607.93 1168.57C1617.41 1167.61 1617.9 1174.3 1617.9 1174.3C1617.9 1174.3 1617.54 1180.34 1616.91 1186.52C1616.47 1193.36 1623.14 1194.5 1623.14 1194.5H1658.57C1655.73 1192.24 1655.57 1187.65 1655.57 1184.78C1655.57 1182.55 1659.29 1177.23 1658.07 1168.82C1657.24 1161.47 1649.03 1159.59 1647.84 1158.59C1646.77 1158.15 1648.09 1156.85 1648.09 1156.85C1648.09 1156.85 1670.38 1150.47 1672.54 1129.41C1675.12 1108.38 1650.83 1106.72 1650.83 1106.72H1566.76ZM1842.43 1106.72L1819.72 1194.5H1908.53L1914.77 1170.31H1859.89L1876.1 1106.72H1842.43ZM1753.12 1125.67C1754.4 1125.58 1755.84 1125.64 1757.36 1125.67C1768.02 1126.53 1778.34 1131.06 1780.06 1139.14C1784.99 1163.38 1759.16 1173.59 1762.1 1172.06C1747.19 1179.75 1724.37 1177.2 1721.68 1161.83C1718.99 1147.12 1730.4 1132.39 1739.89 1128.92C1745.9 1126.78 1749.28 1125.94 1753.12 1125.67ZM1222.25 1125.92C1223.55 1125.87 1224.77 1126 1225.99 1126.17C1236.64 1126.17 1247.33 1131.06 1248.69 1139.14C1253.87 1163.38 1227.96 1173.59 1231.23 1172.06C1216.12 1179.75 1193.11 1177.2 1190.57 1161.83C1187.87 1147.12 1199.55 1132.39 1209.03 1128.92C1214.05 1127.21 1218.33 1126.1 1222.25 1125.92ZM1476.71 1125.92C1478.04 1125.87 1479.44 1126 1480.7 1126.17C1491.15 1126.17 1501.63 1131.06 1503.15 1139.14C1508.48 1163.38 1482.56 1173.59 1485.69 1172.06C1470.63 1179.75 1447.38 1177.2 1445.02 1161.83C1442.44 1147.12 1453.95 1132.39 1463.48 1128.92C1468.39 1127.21 1472.69 1126.1 1476.71 1125.92ZM1594.45 1126.92L1630.88 1127.17C1630.88 1127.17 1637.91 1126.67 1637.36 1133.9C1636.88 1142.26 1627.88 1143.88 1627.88 1143.88H1590.21L1594.45 1126.92ZM1992.61 1132.16L1998.59 1158.09H1975.14L1992.61 1132.16Z" fill="white"/>
</svg>
