<svg width="3000" height="1800" viewBox="0 0 3000 1800" fill="none" xmlns="http://www.w3.org/2000/svg">
<rect width="3000" height="1800" fill="#EFEFEF"/>
<path d="M1049.41 764.276C1049.26 763.322 1048.79 762.447 1048.08 761.789C1047.38 761.132 1046.47 760.73 1045.51 760.649C1043.89 760.516 1012.21 760.034 1012.21 760.034C1012.21 760.034 985.717 734.299 983.099 731.688C980.481 729.07 975.371 729.856 973.384 730.449C973.361 730.464 968.415 731.992 960.079 734.573C958.431 729.175 956.296 723.937 953.701 718.924C944.282 700.924 930.458 691.409 913.772 691.379H913.705C912.548 691.379 911.406 691.491 910.242 691.587C909.753 690.997 909.251 690.419 908.736 689.852C901.468 682.064 892.139 678.282 880.97 678.616C859.418 679.231 837.948 694.798 820.542 722.447C808.291 741.908 798.976 766.353 796.328 785.28L753.9 798.429C741.403 802.352 741.01 802.731 739.379 814.515C738.163 823.415 705.472 1076.19 705.472 1076.19L979.428 1123.58L1098.16 1094.07C1098.16 1094.07 1049.71 766.523 1049.41 764.276ZM946.351 738.823L925.097 745.401C924.933 734.491 923.643 719.302 918.555 706.183C934.908 709.283 942.955 727.787 946.351 738.823ZM910.761 749.844L865.025 764.009C869.445 747.085 877.825 730.227 888.127 719.184C891.953 715.068 897.308 710.492 903.656 707.874C909.619 720.319 910.909 737.925 910.761 749.844ZM881.393 692.959C886.458 692.848 890.715 693.96 894.356 696.356C888.527 699.382 882.898 703.728 877.618 709.394C863.927 724.079 853.433 746.884 849.251 768.882C836.198 772.924 823.435 776.884 811.68 780.511C819.096 745.883 848.123 693.923 881.393 692.959Z" fill="#95BF47"/>
<path d="M1045.51 760.665C1043.9 760.524 1012.22 760.042 1012.22 760.042C1012.22 760.042 985.732 734.314 983.114 731.703C982.1 730.761 980.811 730.168 979.436 730.012L979.443 1123.57L1098.17 1094.07C1098.17 1094.07 1049.73 766.538 1049.42 764.291C1049.26 763.337 1048.8 762.46 1048.09 761.801C1047.38 761.143 1046.48 760.74 1045.51 760.657V760.665Z" fill="#5E8E3E"/>
<path d="M1254.51 929.746C1240.87 922.329 1233.84 916.092 1233.84 907.504C1233.84 896.587 1243.59 889.571 1258.81 889.571C1276.53 889.571 1292.35 896.98 1292.35 896.98L1304.82 858.748C1304.82 858.748 1293.35 849.774 1259.58 849.774C1212.59 849.774 1180.02 876.688 1180.02 914.52C1180.02 935.976 1195.22 952.359 1215.52 964.055C1231.9 973.407 1237.75 980.044 1237.75 989.79C1237.75 999.928 1229.56 1008.12 1214.35 1008.12C1191.69 1008.12 1170.29 996.42 1170.29 996.42L1157.03 1034.64C1157.03 1034.64 1176.8 1047.91 1210.07 1047.91C1258.43 1047.91 1293.14 1024.11 1293.14 981.209C1293.13 958.218 1275.59 941.835 1254.51 929.746ZM1447.19 849.395C1423.4 849.395 1404.68 860.706 1390.25 877.86L1389.47 877.467L1410.14 769.431H1356.31L1304.05 1044.4H1357.88L1375.83 950.408C1382.84 914.905 1401.18 893.079 1418.34 893.079C1430.43 893.079 1435.11 901.266 1435.11 912.97C1435.11 920.386 1434.33 929.36 1432.78 936.762L1412.5 1044.41H1466.33L1487.38 933.254C1489.73 921.543 1491.29 907.519 1491.29 898.144C1491.27 867.714 1475.28 849.388 1447.2 849.388L1447.19 849.395ZM1612.95 849.395C1548.2 849.395 1505.31 907.897 1505.31 973.028C1505.31 1014.76 1531.04 1048.3 1579.41 1048.3C1642.98 1048.3 1685.89 991.362 1685.89 924.665C1685.89 886.055 1663.26 849.388 1612.95 849.388V849.395ZM1586.43 1006.97C1568.09 1006.97 1560.29 991.369 1560.29 971.864C1560.29 941.056 1576.29 890.742 1605.54 890.742C1624.65 890.742 1630.88 907.133 1630.88 923.115C1630.88 956.267 1614.9 1006.97 1586.43 1006.97ZM1823.56 849.395C1787.23 849.395 1766.61 881.375 1766.61 881.375H1765.84L1768.96 852.518H1721.38C1719.04 872.023 1714.74 901.652 1710.46 923.887L1673.02 1120.85H1726.85L1741.66 1041.28H1742.83C1742.83 1041.28 1753.88 1048.3 1774.43 1048.3C1837.61 1048.3 1878.95 983.56 1878.95 918.028C1878.95 881.768 1862.95 849.395 1823.56 849.395ZM1772.08 1007.74C1758.11 1007.74 1749.84 999.943 1749.84 999.943L1758.81 949.629C1765.05 916.092 1782.6 893.857 1801.33 893.857C1817.71 893.857 1822.77 909.061 1822.77 923.501C1822.77 958.21 1802.11 1007.74 1772.08 1007.74ZM1955.78 772.167C1938.62 772.167 1924.97 785.814 1924.97 803.361C1924.97 819.359 1935.11 830.283 1950.32 830.283H1951.1C1967.87 830.283 1982.3 818.965 1982.69 799.082C1982.69 783.478 1972.16 772.167 1955.78 772.167ZM1880.51 1044.4H1934.32L1971 853.69H1916.78L1880.51 1044.4ZM2107.89 853.296H2070.45L2072.39 844.323C2075.51 825.989 2086.44 809.613 2104.38 809.613C2110.2 809.626 2115.99 810.547 2121.53 812.343L2132.06 770.217C2132.06 770.217 2122.7 765.544 2102.8 765.544C2083.69 765.544 2064.6 771.003 2050.16 783.478C2031.82 799.082 2023.24 821.695 2018.96 844.323L2017.41 853.296H1992.44L1984.63 893.865H2009.6L1981.13 1044.42H2034.96L2063.43 893.865H2100.48L2107.89 853.296ZM2237.37 853.697C2237.37 853.697 2203.73 938.468 2188.62 984.739H2187.83C2186.81 969.832 2174.57 853.69 2174.57 853.69H2118.02L2150.4 1028.8C2151.19 1032.7 2150.8 1035.05 2149.23 1037.77C2142.98 1049.86 2132.46 1061.57 2119.97 1070.15C2109.84 1077.56 2098.53 1082.24 2089.56 1085.36L2104.38 1131C2115.3 1128.66 2137.91 1119.68 2157.03 1101.75C2181.6 1078.74 2204.21 1043.24 2227.61 994.877L2293.53 853.675H2237.37V853.697Z" fill="black"/>
<path d="M913.624 821.709L899.829 873.299C899.829 873.299 884.448 866.305 866.219 867.447C839.476 869.145 839.194 886.003 839.469 890.238C840.922 913.311 901.617 918.346 905.028 972.398C907.705 1014.92 882.475 1044 846.121 1046.3C802.476 1049.05 778.455 1023.31 778.455 1023.31L787.703 983.983C787.703 983.983 811.88 1002.23 831.237 1001C843.881 1000.2 848.405 989.916 847.945 982.648C846.047 952.551 796.617 954.324 793.495 904.871C790.862 863.257 818.191 821.079 878.5 817.282C901.735 815.784 913.624 821.709 913.624 821.709Z" fill="#EFEFEF"/>
</svg>
