<svg width="3000" height="1800" viewBox="0 0 3000 1800" fill="none" xmlns="http://www.w3.org/2000/svg">
<g clip-path="url(#clip0_58_21)">
<rect width="3000" height="1800" fill="white"/>
<rect width="3000" height="1800" fill="#F49D18"/>
<path d="M3099.66 1764.38C3099.66 1952.62 2672.47 2237 2483.73 2237C2294.99 2237 2312.86 2147.81 2312.86 1959.57C2312.86 1771.33 2022.77 1865.72 2066.49 1548.66C2229.41 744.109 3389.75 1489.92 3099.66 1764.38Z" fill="#FCC010"/>
<path d="M1194.73 1975.63C1194.73 2106.02 1551.77 2303 1709.52 2303C1867.27 2303 1852.33 2241.22 1852.33 2110.83C1852.33 1980.44 2094.78 2045.82 2058.25 1826.2C1922.08 1268.91 952.276 1785.52 1194.73 1975.63Z" fill="#FCC010"/>
<path d="M2604 -35.8214C2604 154.165 2449.99 308.179 2260 308.179C2070.01 308.179 1479 484 1324 308.179C1144 104 1054.01 -223.821 1244 -223.821C1433.99 -223.821 2604 -225.808 2604 -35.8214Z" fill="#FCC010"/>
<path d="M204 1124C204 1474.15 49.9859 1508 -140 1508C-329.986 1508 -484 1224.15 -484 874C-484 523.851 -329.986 240 -140 240C49.9859 240 204 773.851 204 1124Z" fill="#FCC010"/>
<path d="M779.285 861.818C742.677 861.818 712.894 891.601 712.894 928.21C712.894 964.82 742.676 994.602 779.285 994.602C815.895 994.602 845.677 964.82 845.677 928.21C845.677 891.601 815.894 861.818 779.285 861.818ZM779.285 976.658C752.57 976.658 730.838 954.924 730.838 928.21C730.838 901.496 752.572 879.763 779.285 879.763C805.999 879.763 827.733 901.496 827.733 928.21C827.733 954.924 805.999 976.658 779.285 976.658Z" fill="#23272C"/>
<path d="M951.544 613C914.935 613 885.152 642.783 885.152 679.392C885.152 716 914.934 745.784 951.544 745.784C988.152 745.784 1017.94 716.001 1017.94 679.392C1017.94 642.783 988.153 613 951.544 613ZM951.544 727.839C924.83 727.839 903.096 706.106 903.096 679.392C903.096 652.678 924.83 630.944 951.544 630.944C978.259 630.944 999.991 652.678 999.991 679.392C999.991 706.106 978.259 727.839 951.544 727.839Z" fill="#23272C"/>
<path d="M597.456 613C560.847 613 531.064 642.783 531.064 679.392C531.064 716 560.847 745.784 597.456 745.784C634.065 745.784 663.848 716.001 663.848 679.392C663.847 642.783 634.065 613 597.456 613ZM597.456 727.839C570.741 727.839 549.009 706.106 549.009 679.392C549.009 652.678 570.742 630.944 597.456 630.944C624.17 630.944 645.904 652.678 645.904 679.392C645.904 706.106 624.17 727.839 597.456 727.839Z" fill="#23272C"/>
<path d="M1037.67 831.913C1042.63 831.913 1046.65 827.897 1046.65 822.941V794.232C1046.65 768.177 1025.45 746.98 999.395 746.98H903.694C900.777 746.98 897.876 747.279 895.014 747.815C861.933 722.563 821.015 708.7 779.284 708.7C736.409 708.7 694.672 723.23 661.123 749.71C656.066 747.903 650.77 746.98 645.305 746.98H549.606C523.552 746.98 502.355 768.178 502.355 794.232V928.211C502.355 933.165 506.371 937.183 511.327 937.183H592.22C595.908 955.601 602.283 973.297 611.222 989.889C613.697 994.481 619.744 995.981 624.092 993.101C627.903 990.574 629.184 985.398 627.02 981.378C619.497 967.416 613.979 952.592 610.558 937.184H683.587C688.542 937.184 692.559 933.167 692.559 928.212V794.232C692.559 780.886 687.034 768.517 677.601 759.725C707.02 738.319 742.696 726.643 779.287 726.643C814.223 726.643 847.325 736.79 875.848 756.11C863.96 764.856 856.443 778.955 856.443 794.231V928.21C856.443 933.164 860.459 937.182 865.416 937.182H948C938.275 980.678 911.624 1019.21 874.388 1043.85V1043.05C874.388 1017 853.19 995.798 827.137 995.798H731.435C705.381 995.798 684.184 1017 684.184 1043.05V1043.86C669.531 1034.2 656.481 1022.42 645.272 1008.67C642.139 1004.83 636.488 1004.26 632.648 1007.39C628.808 1010.52 628.235 1016.17 631.365 1020.01C646.199 1038.2 663.952 1053.29 684.184 1064.93V1177.03C684.184 1181.98 688.2 1186 693.156 1186H865.416C870.371 1186 874.388 1181.98 874.388 1177.03V1064.93C921.791 1037.61 955.581 990.583 966.331 937.183H1037.67C1042.63 937.183 1046.65 933.166 1046.65 928.211V870.791C1046.65 865.836 1042.63 861.819 1037.67 861.819C1032.72 861.819 1028.7 865.835 1028.7 870.791V919.239H874.387V794.231C874.387 781.326 883.025 769.767 895.395 766.122H895.396C898.099 765.326 900.89 764.924 903.695 764.924H925.938L932.87 785.721L923.47 889.119C923.135 892.798 925.089 896.305 928.391 897.956L947.53 907.526C950.034 908.777 953.052 908.777 955.556 907.526L974.695 897.956C977.998 896.305 979.953 892.797 979.616 889.119L970.216 785.721L977.15 764.922H999.392C1015.55 764.922 1028.7 778.07 1028.7 794.231V822.94C1028.7 827.895 1032.72 831.913 1037.67 831.913ZM604.149 764.922L600.56 775.689H594.353L590.764 764.922H604.149ZM596.079 793.633H598.834L607.107 884.644L597.456 889.469L587.806 884.644L596.079 793.633ZM674.613 919.239H520.298V794.231C520.298 778.07 533.445 764.922 549.606 764.922H571.849L578.781 785.719L569.382 889.118C569.047 892.797 571.001 896.304 574.303 897.955L593.442 907.525C595.946 908.776 598.964 908.776 601.467 907.525L620.607 897.955C623.91 896.304 625.865 892.795 625.528 889.118L616.128 785.719L623.061 764.922H645.304C649.945 764.922 654.394 765.983 658.523 768.077C668.448 773.107 674.612 783.128 674.612 794.231L674.613 919.239ZM785.978 1013.74L782.389 1024.51H776.181L772.592 1013.74H785.978ZM777.908 1042.45H780.663L788.936 1133.46L779.285 1138.29L769.635 1133.46L777.908 1042.45ZM856.442 1168.06H702.127V1043.05C702.127 1026.89 715.274 1013.74 731.435 1013.74H753.678L760.61 1034.54L751.211 1137.94C750.876 1141.62 752.83 1145.12 756.132 1146.77L775.271 1156.34C777.775 1157.59 780.793 1157.59 783.296 1156.34L802.436 1146.77C805.739 1145.12 807.694 1141.61 807.357 1137.94L797.957 1034.54L804.89 1013.74H827.133C843.295 1013.74 856.441 1026.89 856.441 1043.05V1168.06H856.442ZM958.237 764.922L954.648 775.689H948.44L944.851 764.922H958.237ZM951.544 889.469L941.893 884.644L950.166 793.633H952.921L961.194 884.644L951.544 889.469Z" fill="#23272C"/>
<path d="M1298.76 1043.59C1290.68 1043.59 1286.06 1041.76 1284.89 1038.12L1205.4 809.602C1204.62 808.039 1204.23 806.542 1204.23 805.109C1204.23 803.286 1205.46 801.854 1207.94 800.812C1210.54 799.641 1214.32 799.055 1219.27 799.055H1222.39C1230.33 799.055 1234.96 800.943 1236.26 804.719L1300.52 990.07L1304.03 1008.23H1305.01L1308.91 989.68L1372.98 804.719C1374.41 800.943 1379.1 799.055 1387.04 799.055H1388.99C1399.02 799.055 1404.03 801.073 1404.03 805.109C1404.03 806.411 1403.64 808.039 1402.86 809.992L1323.37 1038.12C1322.2 1041.76 1317.57 1043.59 1309.5 1043.59H1298.76ZM1459.11 1043.59C1449.73 1043.59 1445.05 1041.05 1445.05 1035.97V810.383C1445.05 806.737 1445.89 804.133 1447.59 802.57C1449.28 800.878 1451.95 800.031 1455.59 800.031H1513.99C1541.73 800.031 1562.56 804.914 1576.49 814.68C1590.55 824.445 1597.59 840.005 1597.59 861.359C1597.59 875.812 1594.07 887.987 1587.04 897.883C1580.14 907.648 1570.37 915.005 1557.74 919.953V921.32C1564.51 923.664 1570.05 928.221 1574.34 934.992C1578.77 941.633 1583.65 951.529 1588.99 964.68L1616.14 1033.23C1616.79 1035.58 1617.12 1037.21 1617.12 1038.12C1617.12 1041.76 1612.23 1043.59 1602.47 1043.59H1598.95C1595.44 1043.59 1592.38 1043.13 1589.77 1042.22C1587.3 1041.18 1585.74 1039.81 1585.09 1038.12L1558.72 969.953C1555.33 961.099 1551.36 954.198 1546.8 949.25C1542.25 944.302 1536.84 940.852 1530.59 938.898C1524.34 936.945 1516.47 935.969 1506.96 935.969H1475.71V1035.97C1475.71 1041.05 1471.09 1043.59 1461.84 1043.59H1459.11ZM1521.41 909.602C1529.62 909.602 1537.1 907.648 1543.88 903.742C1550.78 899.836 1556.18 894.628 1560.09 888.117C1564.12 881.477 1566.14 874.445 1566.14 867.023C1566.14 853.352 1561.97 843.195 1553.64 836.555C1545.31 829.784 1533.78 826.398 1519.07 826.398H1475.71V909.602H1521.41ZM1723.17 1044.95C1697 1044.95 1677.01 1037.14 1663.21 1021.52C1649.54 1005.76 1642.7 982.909 1642.7 952.961C1642.7 923.013 1649.67 899.966 1663.6 883.82C1677.53 867.544 1697.39 859.406 1723.17 859.406C1748.69 859.406 1768.22 867.479 1781.77 883.625C1795.31 899.641 1802.08 922.753 1802.08 952.961C1802.08 983.039 1795.37 1005.89 1781.96 1021.52C1768.68 1037.14 1749.08 1044.95 1723.17 1044.95ZM1722.2 1019.95C1739.12 1019.95 1751.62 1014.48 1759.7 1003.55C1767.77 992.479 1771.8 975.422 1771.8 952.375C1771.8 929.198 1767.77 912.076 1759.7 901.008C1751.62 889.94 1739.12 884.406 1722.2 884.406C1705.4 884.406 1693.03 889.94 1685.09 901.008C1677.14 911.945 1673.17 929.068 1673.17 952.375C1673.17 975.552 1677.08 992.609 1684.89 1003.55C1692.83 1014.48 1705.27 1019.95 1722.2 1019.95ZM1920.83 1044.95C1894.66 1044.95 1874.67 1037.14 1860.87 1021.52C1847.2 1005.76 1840.36 982.909 1840.36 952.961C1840.36 923.013 1847.33 899.966 1861.26 883.82C1875.19 867.544 1895.05 859.406 1920.83 859.406C1946.35 859.406 1965.88 867.479 1979.42 883.625C1992.96 899.641 1999.73 922.753 1999.73 952.961C1999.73 983.039 1993.03 1005.89 1979.62 1021.52C1966.34 1037.14 1946.74 1044.95 1920.83 1044.95ZM1919.85 1019.95C1936.78 1019.95 1949.28 1014.48 1957.35 1003.55C1965.42 992.479 1969.46 975.422 1969.46 952.375C1969.46 929.198 1965.42 912.076 1957.35 901.008C1949.28 889.94 1936.78 884.406 1919.85 884.406C1903.05 884.406 1890.68 889.94 1882.74 901.008C1874.8 911.945 1870.83 929.068 1870.83 952.375C1870.83 975.552 1874.73 992.609 1882.55 1003.55C1890.49 1014.48 1902.92 1019.95 1919.85 1019.95ZM2232.74 859.406C2247.2 859.406 2259.89 863.508 2270.83 871.711C2281.77 879.914 2287.23 894.497 2287.23 915.461V1035.97C2287.23 1038.57 2286.13 1040.53 2283.91 1041.83C2281.7 1043 2278.18 1043.59 2273.37 1043.59H2272.2C2267.25 1043.59 2263.67 1043 2261.45 1041.83C2259.24 1040.53 2258.13 1038.57 2258.13 1035.97V918.391C2258.13 907.844 2255.27 899.576 2249.54 893.586C2243.94 887.596 2235.67 884.602 2224.73 884.602C2215.62 884.602 2207.35 887.271 2199.93 892.609C2192.64 897.818 2186.71 903.286 2182.16 909.016C2182.42 912.141 2182.55 914.484 2182.55 916.047V1035.97C2182.55 1041.05 2177.86 1043.59 2168.48 1043.59H2167.12C2157.87 1043.59 2153.25 1041.05 2153.25 1035.97V918.391C2153.25 907.844 2150.39 899.576 2144.66 893.586C2139.06 887.596 2130.79 884.602 2119.85 884.602C2112.3 884.602 2105.4 886.424 2099.15 890.07C2092.9 893.586 2087.69 897.427 2083.52 901.594C2079.49 905.76 2077.47 908.104 2077.47 908.625V1035.97C2077.47 1038.57 2076.36 1040.53 2074.15 1041.83C2072.07 1043 2068.61 1043.59 2063.8 1043.59H2062.23C2057.42 1043.59 2053.9 1043 2051.69 1041.83C2049.6 1040.53 2048.56 1038.57 2048.56 1035.97V914.094C2048.56 898.99 2047.85 888.117 2046.41 881.477C2044.98 874.706 2044.27 870.995 2044.27 870.344C2044.27 867.479 2046.41 865.461 2050.71 864.289C2055.14 862.987 2059.24 862.336 2063.02 862.336C2066.27 862.336 2068.68 864.094 2070.24 867.609C2071.8 871.125 2072.91 874.706 2073.56 878.352C2074.34 881.997 2074.86 884.341 2075.12 885.383C2081.51 877.961 2089.32 871.776 2098.56 866.828C2107.81 861.88 2117.57 859.406 2127.86 859.406C2138.41 859.406 2148.24 861.555 2157.35 865.852C2166.47 870.018 2173.17 877.44 2177.47 888.117C2184.63 879.654 2193.03 872.753 2202.66 867.414C2212.3 862.076 2222.33 859.406 2232.74 859.406Z" fill="#23272C"/>
<path d="M38 1072V1820" stroke="white" stroke-width="6" stroke-linecap="round"/>
<path d="M120.239 1237V1820" stroke="white" stroke-width="6" stroke-linecap="round"/>
<path d="M204.305 1405V1820" stroke="white" stroke-width="6" stroke-linecap="round"/>
<path d="M286.543 1529V1820" stroke="white" stroke-width="6" stroke-linecap="round"/>
<path d="M370 1655V1820" stroke="white" stroke-width="6" stroke-linecap="round"/>
<path d="M2595.06 1508H2595.06" stroke="white" stroke-width="12" stroke-linecap="round"/>
<path d="M2480 1508H2480" stroke="white" stroke-width="12" stroke-linecap="round"/>
<path d="M2829.53 1508H2829.53" stroke="white" stroke-width="12" stroke-linecap="round"/>
<path d="M2714.47 1508H2714.47" stroke="white" stroke-width="12" stroke-linecap="round"/>
<path d="M2948.94 1508H2948.94" stroke="white" stroke-width="12" stroke-linecap="round"/>
<path d="M2595.06 1742.47H2595.06" stroke="white" stroke-width="12" stroke-linecap="round"/>
<path d="M2480 1742.47H2480" stroke="white" stroke-width="12" stroke-linecap="round"/>
<path d="M2829.53 1742.47H2829.53" stroke="white" stroke-width="12" stroke-linecap="round"/>
<path d="M2714.47 1742.47H2714.47" stroke="white" stroke-width="12" stroke-linecap="round"/>
<path d="M2948.94 1742.47H2948.94" stroke="white" stroke-width="12" stroke-linecap="round"/>
<path d="M2595.06 1623.06H2595.06" stroke="white" stroke-width="12" stroke-linecap="round"/>
<path d="M2480 1623.06H2480" stroke="white" stroke-width="12" stroke-linecap="round"/>
<path d="M2829.53 1623.06H2829.53" stroke="white" stroke-width="12" stroke-linecap="round"/>
<path d="M2714.47 1623.06H2714.47" stroke="white" stroke-width="12" stroke-linecap="round"/>
<path d="M2948.94 1623.06H2948.94" stroke="white" stroke-width="12" stroke-linecap="round"/>
<path d="M2810 155V-250" stroke="white" stroke-width="6" stroke-linecap="round"/>
<path d="M2735 393V-269" stroke="white" stroke-width="6" stroke-linecap="round"/>
<path d="M2661 265V-250" stroke="white" stroke-width="6" stroke-linecap="round"/>
<path d="M2595 81V-250" stroke="white" stroke-width="6" stroke-linecap="round"/>
</g>
<defs>
<clipPath id="clip0_58_21">
<rect width="3000" height="1800" fill="white"/>
</clipPath>
</defs>
</svg>
