<svg width="3000" height="1800" viewBox="0 0 3000 1800" fill="none" xmlns="http://www.w3.org/2000/svg">
<rect width="3000" height="1800" fill="#060326"/>
<path d="M1639.1 617.179H1637.46V641.821H1639.1V617.179ZM1689.19 935.893H1588.19V1188.07H1689.19V935.893ZM1689.19 822.536H1588.19V923.571H1689.19V822.536Z" fill="#5C71AD"/>
<path d="M1569.3 923.571H1708.08L1700.69 935.893H1577.51L1569.3 923.571Z" fill="#3B4779"/>
<path d="M1584.08 838.143C1585.72 838.143 1586.54 837.321 1586.54 835.679C1586.54 834.036 1585.72 833.214 1584.08 833.214C1582.44 833.214 1581.62 834.036 1581.62 835.679C1581.62 836.5 1582.44 838.143 1584.08 838.143ZM1693.3 838.143C1694.94 838.143 1695.76 837.321 1695.76 835.679C1695.76 834.036 1694.94 833.214 1693.3 833.214C1691.65 833.214 1690.83 834.036 1690.83 835.679C1690.83 836.5 1691.65 838.143 1693.3 838.143Z" fill="#5C71AD"/>
<path d="M1638.28 641.821L1689.19 822.536H1588.19L1638.28 641.821Z" fill="#3B4779"/>
<path d="M1644.03 635.25H1633.35V659.893H1644.03V635.25Z" fill="#3B4779"/>
<path d="M1699.86 861.143H1685.9V923.571H1699.86V861.143ZM1591.47 861.143H1577.51V923.571H1591.47V861.143Z" fill="#BFCFF6"/>
<path d="M1609.54 1001.61C1611.18 1001.61 1612.82 990.107 1612.82 975.321C1612.82 960.536 1611.18 949.036 1609.54 949.036C1607.89 949.036 1606.25 960.536 1606.25 975.321C1606.25 990.107 1607.89 1001.61 1609.54 1001.61ZM1628.42 1001.61C1630.07 1001.61 1631.71 990.107 1631.71 975.321C1631.71 960.536 1630.07 949.036 1628.42 949.036C1626.78 949.036 1625.14 960.536 1625.14 975.321C1625.14 990.107 1626.78 1001.61 1628.42 1001.61ZM1665.38 1001.61C1667.02 1001.61 1668.66 990.107 1668.66 975.321C1668.66 960.536 1667.02 949.036 1665.38 949.036C1663.73 949.036 1662.09 960.536 1662.09 975.321C1662.09 990.107 1663.73 1001.61 1665.38 1001.61ZM1647.31 1001.61C1648.95 1001.61 1650.6 990.107 1650.6 975.321C1650.6 960.536 1648.95 949.036 1647.31 949.036C1645.67 949.036 1644.03 960.536 1644.03 975.321C1644.03 990.107 1645.67 1001.61 1647.31 1001.61Z" fill="white"/>
<path d="M1670.3 596.643H1637.46V617.179H1670.3V596.643Z" fill="#5C71AD"/>
<path d="M1584.08 833.214L1576.69 862.786H1591.47L1584.08 833.214ZM1693.3 833.214L1685.91 862.786H1700.69L1693.3 833.214Z" fill="#3B4779"/>
<path d="M1639.1 915.357C1662.09 915.357 1680.98 896.464 1680.98 873.464C1680.98 850.464 1662.09 831.571 1639.1 831.571C1616.11 831.571 1597.22 850.464 1597.22 873.464C1597.22 897.286 1616.11 915.357 1639.1 915.357Z" fill="#BFCFF6"/>
<path d="M1639.1 909.607C1658.81 909.607 1675.23 893.179 1675.23 873.464C1675.23 853.75 1658.81 837.321 1639.1 837.321C1619.39 837.321 1602.97 853.75 1602.97 873.464C1602.97 893.179 1619.39 909.607 1639.1 909.607Z" fill="white"/>
<path d="M1638.28 878.393C1640.74 878.393 1642.38 876.75 1642.38 874.286C1642.38 871.821 1640.74 870.179 1638.28 870.179C1635.81 870.179 1634.99 872.643 1634.99 874.286C1634.99 875.929 1636.64 878.393 1638.28 878.393Z" fill="#5C71AD"/>
<path d="M1621.85 885.786L1638.28 874.286L1657.99 891.536" stroke="#5C71AD"/>
<path d="M1538.92 1188.07V913.714C1538.92 836.5 1483.9 789.679 1404.24 789.679C1352.51 789.679 1304.88 815.964 1290.1 850.464V658.25H1187.46V1188.07H1290.1V965.464C1290.1 913.714 1318.84 871 1369.76 871C1416.56 871 1436.27 889.071 1436.27 947.393V1188.07H1538.92ZM1840.28 1188.07V658.25H1737.64V1188.07H1840.28ZM1985.63 1188.07V658.25H1882.99V1188.07H1985.63Z" fill="#3B4779"/>
<path d="M1155.43 1066.5H1072.49C1048.68 1066.5 1034.72 1085.39 1034.72 1113.32C1034.72 1131.39 1042.93 1147.82 1052.78 1152.75H994.482V1188.07H1155.43V1152.75H1088.1C1072.49 1152.75 1059.35 1142.89 1059.35 1124.82C1059.35 1108.39 1065.1 1101.82 1082.35 1101.82H1155.43V1066.5ZM1111.09 968.75C1125.05 968.75 1136.54 982.714 1136.54 1000.79C1136.54 1012.29 1132.44 1018.04 1123.41 1018.04C1113.55 1018.04 1108.62 1011.46 1105.34 990.929C1102.88 977.786 1101.23 971.214 1098.77 967.929L1111.09 968.75ZM1155.43 933.429H1080.7C1051.14 933.429 1033.9 948.214 1033.9 990.929C1033.9 1034.46 1051.14 1049.25 1075.78 1050.07V1017.21C1065.1 1015.57 1058.53 1009 1058.53 992.571C1058.53 978.607 1063.46 969.571 1070.85 969.571C1079.06 969.571 1082.35 974.5 1083.99 992.571C1088.1 1028.71 1092.2 1054.18 1125.87 1054.18C1144.76 1054.18 1157.89 1040.21 1157.89 1009C1157.89 990.929 1152.15 976.964 1143.93 967.929C1147.22 967.929 1151.33 967.107 1154.61 965.464V933.429H1155.43ZM1112.73 832.393C1125.05 834.036 1132.44 844.714 1132.44 858.679C1132.44 872.643 1120.12 884.964 1094.66 884.964C1069.21 884.964 1060.18 872.643 1060.18 857.036C1060.18 843.893 1067.57 833.214 1079.88 831.571V795.429C1051.96 797.893 1034.72 821.714 1034.72 856.214C1034.72 894 1052.78 919.464 1095.49 919.464C1138.19 919.464 1158.72 894 1158.72 857.857C1158.72 825 1140.65 799.536 1112.73 796.25V832.393ZM1155.43 663.179L1080.7 707.536L1038 662.357V705.893L1083.17 750.25H994.482V785.571H1155.43V749.429H1117.66L1102.05 732.179L1155.43 702.607V663.179ZM1354.97 714.107C1354.97 720.679 1352.51 724.786 1345.94 724.786C1340.19 724.786 1336.91 720.679 1336.91 714.107V691.929H1368.11V682.071H1336.91V668.107H1322.95V715.75C1322.95 727.25 1329.52 737.107 1345.94 737.107C1362.37 737.107 1368.93 727.25 1368.93 715.75V700.964H1354.97V714.107ZM1427.24 734.643V696.857C1427.24 686.179 1419.03 679.607 1407.53 679.607C1400.14 679.607 1392.75 682.893 1390.28 687.821V662.357H1375.5V734.643H1390.28V704.25C1390.28 696.857 1394.39 691.107 1401.78 691.107C1408.35 691.107 1411.64 693.571 1411.64 701.786V734.643H1427.24ZM1448.59 703.429C1449.41 696.036 1454.34 691.929 1460.08 691.929C1465.83 691.929 1471.58 696.036 1471.58 703.429H1448.59ZM1487.18 711.643C1487.18 690.286 1478.15 680.429 1460.08 680.429C1442.02 680.429 1432.16 691.107 1432.16 707.536C1432.16 726.429 1442.02 736.286 1460.91 736.286C1473.22 736.286 1482.26 730.536 1486.36 719.036H1470.76C1469.94 722.321 1465.01 724.786 1460.91 724.786C1453.51 724.786 1448.59 719.857 1447.77 711.643H1487.18Z" fill="#5C71AD"/>
</svg>
