<svg width="3000" height="1800" viewBox="0 0 3000 1800" fill="none" xmlns="http://www.w3.org/2000/svg">
<rect width="3000" height="1800" fill="#260303"/>
<path d="M1660.24 616.834H1658.61V641.289H1660.24V616.834Z" fill="#C11F25"/>
<path d="M1710.2 933.12H1609.47V1183.38H1710.2V933.12Z" fill="#C11F25"/>
<path d="M1710.2 820.627H1609.47V920.893H1710.2V820.627Z" fill="#C11F25"/>
<path d="M1590.63 920.893H1729.05L1721.68 933.12H1598.82L1590.63 920.893Z" fill="#84010B"/>
<path d="M1605.38 836.115C1607.02 836.115 1607.84 835.3 1607.84 833.67C1607.84 832.039 1607.02 831.224 1605.38 831.224C1603.74 831.224 1602.92 832.039 1602.92 833.67C1602.92 834.485 1603.74 836.115 1605.38 836.115Z" fill="#C11F25"/>
<path d="M1714.3 836.115C1715.94 836.115 1716.75 835.3 1716.75 833.67C1716.75 832.039 1715.94 831.224 1714.3 831.224C1712.66 831.224 1711.84 832.039 1711.84 833.67C1711.84 834.485 1712.66 836.115 1714.3 836.115Z" fill="#C11F25"/>
<path d="M1659.42 641.289L1710.2 820.627H1609.47L1659.42 641.289Z" fill="#84010B"/>
<path d="M1665.16 634.768H1654.51V659.223H1665.16V634.768Z" fill="#84010B"/>
<path d="M1720.86 858.94H1706.94V920.893H1720.86V858.94Z" fill="#F6BFBF"/>
<path d="M1612.75 858.94H1598.83V920.893H1612.75V858.94Z" fill="#F6BFBF"/>
<path d="M1630.76 998.334C1632.4 998.334 1634.04 986.922 1634.04 972.248C1634.04 957.575 1632.4 946.163 1630.76 946.163C1629.13 946.163 1627.49 957.575 1627.49 972.248C1627.49 986.922 1629.13 998.334 1630.76 998.334Z" fill="#EEE4D4"/>
<path d="M1649.6 998.334C1651.24 998.334 1652.88 986.922 1652.88 972.248C1652.88 957.575 1651.24 946.163 1649.6 946.163C1647.97 946.163 1646.33 957.575 1646.33 972.248C1646.33 986.922 1647.97 998.334 1649.6 998.334Z" fill="#EEE4D4"/>
<path d="M1686.46 998.334C1688.09 998.334 1689.73 986.922 1689.73 972.248C1689.73 957.575 1688.09 946.163 1686.46 946.163C1684.82 946.163 1683.18 957.575 1683.18 972.248C1683.18 986.922 1684.82 998.334 1686.46 998.334Z" fill="#EEE4D4"/>
<path d="M1668.44 998.334C1670.08 998.334 1671.72 986.922 1671.72 972.248C1671.72 957.575 1670.08 946.163 1668.44 946.163C1666.81 946.163 1665.17 957.575 1665.17 972.248C1665.17 986.922 1666.81 998.334 1668.44 998.334Z" fill="#EEE4D4"/>
<path d="M1691.37 596.455H1658.61V616.834H1691.37V596.455Z" fill="#C11F25"/>
<path d="M1605.38 831.224L1598.01 860.571H1612.75L1605.38 831.224Z" fill="#84010B"/>
<path d="M1714.31 831.224L1706.94 860.571H1721.68L1714.31 831.224Z" fill="#84010B"/>
<path d="M1660.26 912.741C1683.19 912.741 1702.02 893.992 1702.02 871.167C1702.02 848.343 1683.19 829.594 1660.26 829.594C1637.32 829.594 1618.49 848.343 1618.49 871.167C1618.49 894.808 1637.32 912.741 1660.26 912.741Z" fill="#F6BFBF"/>
<path d="M1660.25 907.035C1679.9 907.035 1696.28 890.732 1696.28 871.167C1696.28 851.604 1679.9 835.3 1660.25 835.3C1640.59 835.3 1624.21 851.604 1624.21 871.167C1624.21 890.732 1640.59 907.035 1660.25 907.035Z" fill="#EEE4D4"/>
<path d="M1659.43 876.058C1661.89 876.058 1663.53 874.428 1663.53 871.982C1663.53 869.537 1661.89 867.906 1659.43 867.906C1656.98 867.906 1656.16 870.352 1656.16 871.982C1656.16 873.613 1657.79 876.058 1659.43 876.058Z" fill="#C11F25"/>
<path d="M1659.43 871.982L1643.05 883.395" stroke="#C11F25" stroke-width="0.757998"/>
<path d="M1659.43 871.982L1679.09 889.101" stroke="#C11F25" stroke-width="0.757998"/>
<path d="M1560.34 1183.38V911.11C1560.34 834.485 1505.47 788.02 1426.02 788.02C1374.42 788.02 1326.92 814.105 1312.18 848.343V657.593H1209.8V1183.38H1312.18V962.467C1312.18 911.11 1340.84 868.722 1391.62 868.722C1438.31 868.722 1457.96 886.656 1457.96 944.533V1183.38H1560.34Z" fill="#84010B"/>
<path d="M1860.91 1183.38V657.593H1758.53V1183.38H1860.91ZM2005.87 1183.38V657.593H1903.5V1183.38H2005.87Z" fill="#84010B"/>
<path d="M1177.86 1062.73H1095.14C1071.39 1062.73 1057.46 1081.48 1057.46 1109.2C1057.46 1127.13 1065.65 1143.43 1075.48 1148.33H1017.33V1183.38H1177.86V1148.33H1110.7C1095.14 1148.33 1082.03 1138.54 1082.03 1120.61C1082.03 1104.31 1087.77 1097.78 1104.97 1097.78H1177.86V1062.73ZM1133.63 965.727C1147.55 965.727 1159.02 979.585 1159.02 997.519C1159.02 1008.93 1154.92 1014.64 1145.92 1014.64C1136.09 1014.64 1131.17 1008.12 1127.9 987.737C1125.44 974.694 1123.8 968.172 1121.34 964.913L1133.63 965.727ZM1177.86 930.675H1103.33C1073.84 930.675 1056.64 945.348 1056.64 987.737C1056.64 1030.94 1073.84 1045.61 1098.41 1046.43V1013.82C1087.77 1012.19 1081.21 1005.67 1081.21 989.367C1081.21 975.509 1086.13 966.542 1093.5 966.542C1101.69 966.542 1104.97 971.433 1106.6 989.367C1110.7 1025.23 1114.79 1050.51 1148.37 1050.51C1167.21 1050.51 1180.31 1036.65 1180.31 1005.67C1180.31 987.737 1174.58 973.879 1166.39 964.913C1169.67 964.913 1173.76 964.097 1177.04 962.467V930.675H1177.86ZM1135.27 830.409C1147.55 832.039 1154.92 842.637 1154.92 856.495C1154.92 870.352 1142.64 882.58 1117.25 882.58C1091.86 882.58 1082.85 870.352 1082.85 854.865C1082.85 841.822 1090.22 831.224 1102.51 829.594V793.727C1074.66 796.172 1057.46 819.812 1057.46 854.049C1057.46 891.547 1075.48 916.817 1118.07 916.817C1160.66 916.817 1181.13 891.547 1181.13 855.68C1181.13 823.072 1163.11 797.803 1135.27 794.542V830.409ZM1177.86 662.484L1103.33 706.503L1060.74 661.669V704.872L1105.78 748.892H1017.33V783.944H1177.86V748.077H1140.18L1124.62 730.958L1177.86 701.613V662.484Z" fill="#C11F25"/>
<path d="M1376.88 713.024C1376.88 719.546 1374.42 723.622 1367.87 723.622C1362.14 723.622 1358.86 719.546 1358.86 713.024V691.015H1389.98V681.233H1358.86V667.375H1344.94V714.655C1344.94 726.067 1351.49 735.849 1367.87 735.849C1384.25 735.849 1390.8 726.067 1390.8 714.655V699.982H1376.88V713.024ZM1448.95 733.404V695.906C1448.95 685.309 1440.76 678.787 1429.29 678.787C1421.92 678.787 1414.55 682.048 1412.09 686.939V661.669H1397.35V733.404H1412.09V703.243C1412.09 695.906 1416.19 690.2 1423.56 690.2C1430.11 690.2 1433.39 692.646 1433.39 700.797V733.404H1448.95ZM1470.24 702.428C1471.06 695.091 1475.98 691.015 1481.71 691.015C1487.44 691.015 1493.18 695.091 1493.18 702.428H1470.24ZM1508.74 710.579C1508.74 689.385 1499.73 679.603 1481.71 679.603C1463.69 679.603 1453.86 690.2 1453.86 706.503C1453.86 725.252 1463.69 735.034 1482.53 735.034C1494.81 735.034 1503.82 729.328 1507.92 717.915H1492.36C1491.54 721.176 1486.62 723.622 1482.53 723.622C1475.16 723.622 1470.24 718.73 1469.42 710.579H1508.74Z" fill="#C11F25"/>
</svg>
