<svg width="3000" height="1800" viewBox="0 0 3000 1800" fill="none" xmlns="http://www.w3.org/2000/svg">
<rect width="3000" height="1800" fill="#222222"/>
<path d="M946.35 1384V1274.5H962.55V1338.4H963.15L990.45 1306H1009.65L978.3 1343.5L1010.1 1384H991.05L963.15 1348.9H962.55V1384H946.35ZM1055.55 1385.5C1043.35 1385.5 1034.3 1382.45 1028.4 1376.35C1022.5 1370.15 1019.55 1360.7 1019.55 1348V1342C1019.55 1329.1 1022 1319.65 1026.9 1313.65C1031.8 1307.55 1039.5 1304.5 1050 1304.5C1060.5 1304.5 1068.2 1307.55 1073.1 1313.65C1078 1319.65 1080.45 1329.1 1080.45 1342V1352.2H1027.65V1339H1067.55L1064.4 1343.35V1342.75C1064.4 1333.95 1063.3 1327.7 1061.1 1324C1058.9 1320.3 1055.25 1318.45 1050.15 1318.45C1044.95 1318.45 1041.25 1320.3 1039.05 1324C1036.85 1327.7 1035.75 1333.95 1035.75 1342.75V1347.25C1035.75 1353.65 1036.35 1358.6 1037.55 1362.1C1038.75 1365.6 1040.9 1368.05 1044 1369.45C1047.1 1370.85 1051.4 1371.55 1056.9 1371.55C1059.8 1371.55 1062.75 1371.4 1065.75 1371.1C1068.75 1370.7 1072.2 1370 1076.1 1369V1383.1C1072.9 1383.8 1069.5 1384.35 1065.9 1384.75C1062.4 1385.25 1058.95 1385.5 1055.55 1385.5ZM1139.7 1385.5C1130.9 1385.5 1124.6 1383.65 1120.8 1379.95C1117.1 1376.25 1115.25 1370.1 1115.25 1361.5V1288.6H1092.75V1274.5H1131.75V1357.6C1131.75 1362.8 1132.55 1366.35 1134.15 1368.25C1135.85 1370.15 1139 1371.1 1143.6 1371.1C1146.2 1371.1 1148.6 1370.85 1150.8 1370.35C1153.1 1369.85 1155.25 1369.2 1157.25 1368.4V1382.8C1154.45 1383.7 1151.6 1384.35 1148.7 1384.75C1145.8 1385.25 1142.8 1385.5 1139.7 1385.5ZM1172.1 1309.3C1179.2 1306.1 1187.7 1304.5 1197.6 1304.5C1206 1304.5 1212.65 1305.8 1217.55 1308.4C1222.45 1310.9 1225.95 1315 1228.05 1320.7C1230.25 1326.3 1231.35 1333.9 1231.35 1343.5C1231.35 1353.6 1230.25 1361.75 1228.05 1367.95C1225.85 1374.05 1222.25 1378.5 1217.25 1381.3C1212.35 1384.1 1205.8 1385.5 1197.6 1385.5C1194.5 1385.5 1191.4 1385.3 1188.3 1384.9C1185.3 1384.5 1182.55 1383.9 1180.05 1383.1L1184.25 1368.55C1187.15 1369.55 1189.8 1370.3 1192.2 1370.8C1194.6 1371.2 1196.9 1371.4 1199.1 1371.4C1203.2 1371.4 1206.4 1370.6 1208.7 1369C1211.1 1367.3 1212.75 1364.45 1213.65 1360.45C1214.65 1356.35 1215.15 1350.8 1215.15 1343.8C1215.15 1337.4 1214.65 1332.4 1213.65 1328.8C1212.75 1325.1 1211.2 1322.5 1209 1321C1206.8 1319.5 1203.75 1318.75 1199.85 1318.75C1197.45 1318.75 1195.05 1319 1192.65 1319.5C1190.25 1320 1187.55 1320.9 1184.55 1322.2L1188.3 1313.35V1415.5H1172.1V1309.3ZM1274.55 1384V1320.1H1249.05V1306H1291.05V1384H1274.55ZM1280.55 1294.45C1276.75 1294.45 1273.7 1293.4 1271.4 1291.3C1269.1 1289.2 1267.95 1286.3 1267.95 1282.6C1267.95 1278.9 1269.1 1276 1271.4 1273.9C1273.7 1271.8 1276.75 1270.75 1280.55 1270.75C1284.35 1270.75 1287.35 1271.8 1289.55 1273.9C1291.85 1276 1293 1278.9 1293 1282.6C1293 1286.3 1291.85 1289.2 1289.55 1291.3C1287.35 1293.4 1284.35 1294.45 1280.55 1294.45ZM1355.55 1385.5C1343.35 1385.5 1334.3 1382.45 1328.4 1376.35C1322.5 1370.15 1319.55 1360.7 1319.55 1348V1342C1319.55 1329.1 1322 1319.65 1326.9 1313.65C1331.8 1307.55 1339.5 1304.5 1350 1304.5C1360.5 1304.5 1368.2 1307.55 1373.1 1313.65C1378 1319.65 1380.45 1329.1 1380.45 1342V1352.2H1327.65V1339H1367.55L1364.4 1343.35V1342.75C1364.4 1333.95 1363.3 1327.7 1361.1 1324C1358.9 1320.3 1355.25 1318.45 1350.15 1318.45C1344.95 1318.45 1341.25 1320.3 1339.05 1324C1336.85 1327.7 1335.75 1333.95 1335.75 1342.75V1347.25C1335.75 1353.65 1336.35 1358.6 1337.55 1362.1C1338.75 1365.6 1340.9 1368.05 1344 1369.45C1347.1 1370.85 1351.4 1371.55 1356.9 1371.55C1359.8 1371.55 1362.75 1371.4 1365.75 1371.1C1368.75 1370.7 1372.2 1370 1376.1 1369V1383.1C1372.9 1383.8 1369.5 1384.35 1365.9 1384.75C1362.4 1385.25 1358.95 1385.5 1355.55 1385.5ZM1387.5 1408.3V1396H1462.5V1408.3H1387.5ZM1479 1312.75C1484.1 1311.05 1489.6 1309.6 1495.5 1308.4C1501.5 1307.2 1507.4 1306.25 1513.2 1305.55C1519 1304.85 1524.35 1304.5 1529.25 1304.5V1318.75C1522.95 1318.75 1516.35 1319.35 1509.45 1320.55C1502.55 1321.75 1496.55 1323.3 1491.45 1325.2L1495.5 1317.4V1384H1479V1312.75ZM1575 1385.5C1564.3 1385.5 1556.4 1382.5 1551.3 1376.5C1546.3 1370.4 1543.8 1360.9 1543.8 1348V1342C1543.8 1329.1 1546.3 1319.65 1551.3 1313.65C1556.4 1307.55 1564.3 1304.5 1575 1304.5C1585.8 1304.5 1593.7 1307.55 1598.7 1313.65C1603.7 1319.65 1606.2 1329.1 1606.2 1342V1348C1606.2 1360.9 1603.7 1370.4 1598.7 1376.5C1593.7 1382.5 1585.8 1385.5 1575 1385.5ZM1575 1371.1C1580.3 1371.1 1584.05 1369.25 1586.25 1365.55C1588.45 1361.85 1589.55 1355.6 1589.55 1346.8V1343.2C1589.55 1334.4 1588.45 1328.15 1586.25 1324.45C1584.05 1320.75 1580.3 1318.9 1575 1318.9C1569.8 1318.9 1566.05 1320.75 1563.75 1324.45C1561.55 1328.15 1560.45 1334.4 1560.45 1343.2V1346.8C1560.45 1355.6 1561.55 1361.85 1563.75 1365.55C1566.05 1369.25 1569.8 1371.1 1575 1371.1ZM1647.6 1385.5C1642.6 1385.5 1637.9 1385.05 1633.5 1384.15C1629.1 1383.25 1625.3 1382.1 1622.1 1380.7V1274.5H1638.3V1375.15L1634.7 1367.2C1638.7 1370 1643.55 1371.4 1649.25 1371.4C1653.25 1371.4 1656.4 1370.55 1658.7 1368.85C1661.1 1367.15 1662.75 1364.3 1663.65 1360.3C1664.65 1356.3 1665.15 1350.8 1665.15 1343.8C1665.15 1337.4 1664.7 1332.4 1663.8 1328.8C1663 1325.2 1661.6 1322.65 1659.6 1321.15C1657.7 1319.55 1655 1318.75 1651.5 1318.75C1649 1318.75 1646.45 1319.15 1643.85 1319.95C1641.25 1320.65 1638.3 1321.85 1635 1323.55L1630.2 1309.75C1633.5 1307.95 1637.1 1306.65 1641 1305.85C1644.9 1304.95 1648.9 1304.5 1653 1304.5C1660 1304.5 1665.55 1305.8 1669.65 1308.4C1673.75 1310.9 1676.7 1315 1678.5 1320.7C1680.4 1326.4 1681.35 1334 1681.35 1343.5C1681.35 1353.6 1680.25 1361.75 1678.05 1367.95C1675.85 1374.05 1672.25 1378.5 1667.25 1381.3C1662.35 1384.1 1655.8 1385.5 1647.6 1385.5ZM1725 1385.5C1714.3 1385.5 1706.4 1382.5 1701.3 1376.5C1696.3 1370.4 1693.8 1360.9 1693.8 1348V1342C1693.8 1329.1 1696.3 1319.65 1701.3 1313.65C1706.4 1307.55 1714.3 1304.5 1725 1304.5C1735.8 1304.5 1743.7 1307.55 1748.7 1313.65C1753.7 1319.65 1756.2 1329.1 1756.2 1342V1348C1756.2 1360.9 1753.7 1370.4 1748.7 1376.5C1743.7 1382.5 1735.8 1385.5 1725 1385.5ZM1725 1371.1C1730.3 1371.1 1734.05 1369.25 1736.25 1365.55C1738.45 1361.85 1739.55 1355.6 1739.55 1346.8V1343.2C1739.55 1334.4 1738.45 1328.15 1736.25 1324.45C1734.05 1320.75 1730.3 1318.9 1725 1318.9C1719.8 1318.9 1716.05 1320.75 1713.75 1324.45C1711.55 1328.15 1710.45 1334.4 1710.45 1343.2V1346.8C1710.45 1355.6 1711.55 1361.85 1713.75 1365.55C1716.05 1369.25 1719.8 1371.1 1725 1371.1ZM1809.9 1385.5C1800.8 1385.5 1794.25 1383.7 1790.25 1380.1C1786.25 1376.4 1784.25 1370.2 1784.25 1361.5V1320.1H1766.1V1306H1784.25V1280.5H1800.75V1306H1828.5V1320.1H1800.75V1357.6C1800.75 1362.8 1801.65 1366.35 1803.45 1368.25C1805.25 1370.15 1808.65 1371.1 1813.65 1371.1C1816.35 1371.1 1818.95 1370.85 1821.45 1370.35C1823.95 1369.85 1826.3 1369.2 1828.5 1368.4V1382.8C1825.5 1383.8 1822.45 1384.5 1819.35 1384.9C1816.35 1385.3 1813.2 1385.5 1809.9 1385.5ZM1874.55 1384V1320.1H1849.05V1306H1891.05V1384H1874.55ZM1880.55 1294.45C1876.75 1294.45 1873.7 1293.4 1871.4 1291.3C1869.1 1289.2 1867.95 1286.3 1867.95 1282.6C1867.95 1278.9 1869.1 1276 1871.4 1273.9C1873.7 1271.8 1876.75 1270.75 1880.55 1270.75C1884.35 1270.75 1887.35 1271.8 1889.55 1273.9C1891.85 1276 1893 1278.9 1893 1282.6C1893 1286.3 1891.85 1289.2 1889.55 1291.3C1887.35 1293.4 1884.35 1294.45 1880.55 1294.45ZM1956.75 1385.5C1932.55 1385.5 1920.45 1373 1920.45 1348V1342C1920.45 1317 1932.6 1304.5 1956.9 1304.5C1963.6 1304.5 1969.75 1305.3 1975.35 1306.9V1339.45H1959V1309.3L1967.25 1321.45C1965.25 1320.65 1963.15 1320.05 1960.95 1319.65C1958.85 1319.15 1956.7 1318.9 1954.5 1318.9C1948.3 1318.9 1943.85 1320.8 1941.15 1324.6C1938.45 1328.3 1937.1 1334.5 1937.1 1343.2V1346.8C1937.1 1353 1937.75 1357.9 1939.05 1361.5C1940.35 1365 1942.55 1367.5 1945.65 1369C1948.75 1370.4 1953.05 1371.1 1958.55 1371.1C1961.45 1371.1 1964.15 1370.9 1966.65 1370.5C1969.25 1370.1 1972.15 1369.45 1975.35 1368.55V1383.1C1972.55 1383.8 1969.55 1384.35 1966.35 1384.75C1963.25 1385.25 1960.05 1385.5 1956.75 1385.5ZM2022.45 1385.5C2017.95 1385.5 2013.75 1385.15 2009.85 1384.45C2005.95 1383.85 2002.05 1382.9 1998.15 1381.6V1367.2C2002.35 1368.5 2006.35 1369.5 2010.15 1370.2C2014.05 1370.9 2017.9 1371.25 2021.7 1371.25C2027.2 1371.25 2031.15 1370.55 2033.55 1369.15C2036.05 1367.65 2037.3 1365.4 2037.3 1362.4C2037.3 1360.8 2036.75 1359.4 2035.65 1358.2C2034.65 1357 2033 1355.85 2030.7 1354.75C2028.5 1353.55 2025.55 1352.4 2021.85 1351.3C2012.65 1348.7 2006.05 1345.45 2002.05 1341.55C1998.05 1337.65 1996.05 1332.5 1996.05 1326.1C1996.05 1318.6 1998.55 1313.15 2003.55 1309.75C2008.65 1306.25 2016.65 1304.5 2027.55 1304.5C2031.35 1304.5 2035.1 1304.75 2038.8 1305.25C2042.5 1305.75 2046.9 1306.6 2052 1307.8V1331.95H2035.8V1310.95L2042.85 1320.1C2039.45 1319.6 2036.7 1319.25 2034.6 1319.05C2032.6 1318.85 2030.65 1318.75 2028.75 1318.75C2023.25 1318.75 2019.2 1319.4 2016.6 1320.7C2014 1322 2012.7 1324.05 2012.7 1326.85C2012.7 1328.45 2013.25 1329.95 2014.35 1331.35C2015.45 1332.75 2017.2 1334.05 2019.6 1335.25C2022 1336.45 2025.25 1337.7 2029.35 1339C2038.35 1341.8 2044.7 1345.05 2048.4 1348.75C2052.1 1352.35 2053.95 1357.2 2053.95 1363.3C2053.95 1370.9 2051.35 1376.5 2046.15 1380.1C2041.05 1383.7 2033.15 1385.5 2022.45 1385.5Z" fill="#C0C0C0"/>
<g clip-path="url(#clip0_36_22)">
<path d="M1482.9 574.533C1492.87 574.533 1500.96 566.449 1500.96 556.477C1500.96 546.505 1492.87 538.421 1482.9 538.421C1472.93 538.421 1464.85 546.505 1464.85 556.477C1464.85 566.449 1472.93 574.533 1482.9 574.533Z" fill="#00A99D"/>
<path d="M1252.54 605.054H1195.25C1194.01 605.054 1193 606.059 1193 607.299V696.6C1193 697.841 1194.01 698.846 1195.25 698.846H1252.54C1253.78 698.846 1254.78 697.841 1254.78 696.6V607.299C1254.78 606.059 1253.78 605.054 1252.54 605.054Z" fill="#666666"/>
<path d="M1765.35 604.119H1708.05C1706.81 604.119 1705.81 605.125 1705.81 606.365V695.666C1705.81 696.906 1706.81 697.911 1708.05 697.911H1765.35C1766.59 697.911 1767.59 696.906 1767.59 695.666V606.365C1767.59 605.125 1766.59 604.119 1765.35 604.119Z" fill="#666666"/>
<path d="M1807 1183C1785.61 1143.41 1769.98 1100.97 1760.57 1056.97C1735.33 937.765 1777.81 903.07 1745.67 814.733C1713.52 726.397 1657.56 723.383 1645.08 637.096C1635.38 569.996 1662.18 523.093 1650.05 517.833C1635.28 511.427 1573.7 571.428 1570.56 643.306C1567.68 708.974 1616.66 715.425 1632.66 811.011C1635.77 829.579 1645.64 892.836 1621.48 962.558C1609.43 997.39 1600.31 1000.8 1592.85 1027.16C1583.46 1060.65 1582.57 1110.78 1621.36 1183" fill="#00A99D"/>
<path d="M1614.14 611.007C1610.21 610.902 1601.65 645.175 1606.61 680.564C1612.83 724.423 1636.05 742.931 1652.57 772.502C1690.47 840.326 1643.93 878.488 1657.53 1013.49C1665.42 1091.86 1688.43 1151.94 1691.07 1151.38C1693.71 1150.82 1672.76 1092.45 1673.68 1012.25C1675.19 886.596 1728.43 856.754 1701 793.618C1680.48 746.337 1641.09 741.183 1624 676.841C1614.78 641.844 1617.85 611.098 1614.14 611.007Z" fill="#187A72"/>
<path d="M1674.65 797.914H1285.8C1280.5 797.914 1276.21 802.205 1276.21 807.499V1047.34C1276.21 1052.63 1280.5 1056.92 1285.8 1056.92H1674.65C1679.94 1056.92 1684.23 1052.63 1684.23 1047.34V807.499C1684.23 802.205 1679.94 797.914 1674.65 797.914Z" fill="#4D4D4D"/>
<path d="M1502.71 742.932H1457.72V797.899H1502.71V742.932Z" fill="#666666"/>
<path d="M1718.9 557.532H1241.54C1238.31 557.532 1235.69 560.15 1235.69 563.38V738.018C1235.69 741.248 1238.31 743.866 1241.54 743.866H1718.9C1722.13 743.866 1724.75 741.248 1724.75 738.018V563.38C1724.75 560.15 1722.13 557.532 1718.9 557.532Z" fill="#4D4D4D"/>
<path d="M1452.72 1056.91H1241.3C1238.2 1056.91 1235.69 1059.42 1235.69 1062.52V1161.24C1235.69 1164.33 1238.2 1166.84 1241.3 1166.84H1452.72C1455.82 1166.84 1458.33 1164.33 1458.33 1161.24V1062.52C1458.33 1059.42 1455.82 1056.91 1452.72 1056.91Z" fill="#666666"/>
<path d="M1724.74 1056.91H1513.31C1510.22 1056.91 1507.71 1059.42 1507.71 1062.52V1161.24C1507.71 1164.33 1510.22 1166.84 1513.31 1166.84H1724.74C1727.83 1166.84 1730.34 1164.33 1730.34 1161.24V1062.52C1730.34 1059.42 1727.83 1056.91 1724.74 1056.91Z" fill="#666666"/>
<path d="M1329.89 687.617C1350.27 687.617 1366.79 671.092 1366.79 650.706C1366.79 630.321 1350.27 613.795 1329.89 613.795C1309.51 613.795 1292.98 630.321 1292.98 650.706C1292.98 671.092 1309.51 687.617 1329.89 687.617Z" fill="#00A99D"/>
<path d="M1448.33 1183C1425.46 1141.88 1408.83 1097.59 1398.98 1051.57C1373.74 932.37 1416.22 897.674 1384.08 809.338C1351.94 721.002 1295.97 718.018 1283.42 631.731C1273.77 564.631 1300.58 517.727 1288.45 512.467C1273.68 506.062 1212.09 566.063 1208.96 637.941C1206.1 703.609 1255.06 710.06 1271.06 805.645C1274.16 824.214 1284.03 887.471 1259.88 957.193C1247.82 992.024 1238.71 995.43 1231.25 1021.79C1221.63 1056.09 1220.98 1107.88 1262.76 1183" fill="#00A99D"/>
<path d="M1252.55 605.641C1248.62 605.536 1240.08 639.809 1245.02 675.198C1251.24 719.057 1274.46 737.565 1290.98 767.137C1328.88 834.96 1282.35 873.122 1295.94 1008.12C1303.83 1086.49 1326.85 1146.57 1329.48 1146.01C1332.12 1145.46 1311.17 1087.08 1312.09 1006.88C1313.55 881.261 1366.91 851.388 1339.49 788.252C1318.96 740.972 1279.57 735.817 1262.48 671.475C1253.19 636.493 1256.29 605.732 1252.55 605.641Z" fill="#187A72"/>
<path d="M1629.38 687.617C1649.76 687.617 1666.28 671.092 1666.28 650.706C1666.28 630.321 1649.76 613.795 1629.38 613.795C1609 613.795 1592.47 630.321 1592.47 650.706C1592.47 671.092 1609 687.617 1629.38 687.617Z" fill="#00A99D"/>
</g>
<defs>
<clipPath id="clip0_36_22">
<rect width="614" height="671" fill="white" transform="translate(1193 512)"/>
</clipPath>
</defs>
</svg>
