<svg width="3000" height="1800" viewBox="0 0 3000 1800" fill="none" xmlns="http://www.w3.org/2000/svg">
<g clip-path="url(#clip0_89_5)">
<rect width="3000" height="1800" fill="white"/>
<rect width="3000" height="1800" fill="#106EA0"/>
<ellipse cx="1539" cy="1866" rx="719" ry="698" fill="#FFED87" fill-opacity="0.89"/>
<ellipse cx="2908" cy="-0.5" rx="318" ry="308.5" fill="#FFED87" fill-opacity="0.89"/>
<path d="M730.172 969H669.488V754.133H693.688C700.166 754.133 709.944 753.889 723.022 753.4C736.1 752.789 746.855 752.483 755.288 752.483C779 752.483 796.966 758.778 809.188 771.367C821.411 783.956 827.522 802.839 827.522 828.017C827.522 843.172 825.505 856.983 821.472 869.45C817.561 881.794 812.244 891.939 805.522 899.883C798.8 907.828 791.161 913.939 782.605 918.217C774.05 922.494 765.005 924.633 755.472 924.633C754.25 924.633 752.966 924.633 751.622 924.633C750.4 924.633 749.238 924.633 748.138 924.633C747.161 924.511 745.938 924.45 744.472 924.45C743.127 924.328 742.027 924.267 741.172 924.267C740.438 924.144 739.338 924.083 737.872 924.083C736.527 923.961 735.611 923.9 735.122 923.9C734.633 923.9 733.716 923.839 732.372 923.717C731.027 923.594 730.294 923.533 730.172 923.533V969ZM767.388 819.95C767.388 810.906 764.944 803.572 760.055 797.95C755.166 792.328 748.138 789.517 738.972 789.517H730.172V884.85H736.955C746.611 884.85 754.066 881.611 759.322 875.133C764.7 868.656 767.388 859.306 767.388 847.083V819.95ZM946.78 969L938.53 934.717H886.463L879.497 969H825.597L881.513 768.983L877.113 754.133H952.83L1014.06 969H946.78ZM910.113 817.2L893.98 897.317H929.547L910.113 817.2ZM1055.4 969V802.717H1012.5V754.133H1160.26V802.717H1117.36V969H1055.4ZM1237.2 969H1176.52V754.133H1237.2V839.2H1284.32V754.133H1345V969H1284.32V881.367H1237.2V969ZM1430.03 969H1369.34V754.133H1490.34V800.883L1430.03 797.217V847.083H1479.53V892.55L1430.03 888.883V969ZM1505.78 969V754.133H1568.3V969H1505.78ZM1651.62 969H1593.32V771.367L1584.33 754.133H1651.8L1685.53 823.8L1717.8 893.283L1708.82 811.7V754.133H1767.3V969H1711.38L1667.75 884.117L1640.8 830.95L1651.62 901.35V969ZM1864.46 938.933C1873.75 938.933 1880.84 933.189 1885.73 921.7C1890.74 910.211 1893.25 891.267 1893.25 864.867V846.35C1893.25 827.039 1890.92 812.128 1886.28 801.617C1881.64 791.106 1875.04 785.85 1866.48 785.85H1852.73V938.933H1864.46ZM1870.15 970.283C1865.75 970.283 1858.9 970.039 1849.61 969.55C1840.45 969.183 1830.97 969 1821.2 969H1792.05V754.133H1821.2C1829.39 754.011 1838.31 753.706 1847.96 753.217C1857.62 752.728 1865.2 752.483 1870.7 752.483C1901.86 752.483 1924.17 761.222 1937.61 778.7C1951.18 796.178 1957.96 821.661 1957.96 855.15C1957.96 866.517 1957.17 877.333 1955.58 887.6C1954.11 897.867 1951.3 908.194 1947.15 918.583C1942.99 928.85 1937.74 937.711 1931.38 945.167C1925.02 952.622 1916.59 958.672 1906.08 963.317C1895.57 967.961 1883.59 970.283 1870.15 970.283ZM2105.18 969H1975.2V754.133H2102.43L2098.77 797.4L2035.88 795.567V837H2085.38V879.9L2035.88 876.233V925L2105.18 923.167V969ZM2182.15 897.5V969H2121.28V754.133H2145.48C2151.35 754.133 2160.09 753.889 2171.7 753.4C2183.31 752.789 2192.9 752.483 2200.48 752.483C2226.88 752.483 2246.56 758.289 2259.52 769.9C2272.59 781.511 2279.13 799.294 2279.13 823.25C2279.13 837.428 2276.02 850.017 2269.78 861.017C2263.67 872.017 2255.54 880.756 2245.4 887.233C2250.9 888.578 2255.6 891.694 2259.52 896.583C2263.55 901.472 2266.67 907.278 2268.87 914C2271.07 920.6 2272.96 927.322 2274.55 934.167C2276.26 940.889 2278.15 947.55 2280.23 954.15C2282.43 960.75 2284.82 965.7 2287.38 969H2219.73C2218.39 967.289 2217.35 962.522 2216.62 954.7C2215.88 946.756 2214.84 937.283 2213.5 926.283C2212.28 915.161 2210.5 905.872 2208.18 898.417C2207.94 898.417 2207.63 898.417 2207.27 898.417C2204.94 898.417 2202.44 898.417 2199.75 898.417C2197.18 898.294 2194.92 898.172 2192.97 898.05C2191.01 897.928 2188.93 897.806 2186.73 897.683C2184.65 897.561 2183.13 897.5 2182.15 897.5ZM2182.15 863.4H2188.02C2191.07 863.4 2193.64 863.278 2195.72 863.033C2197.79 862.789 2200.05 862.361 2202.5 861.75C2205.07 861.017 2207.14 859.917 2208.73 858.45C2210.44 856.983 2212.03 855.089 2213.5 852.767C2214.97 850.444 2216.07 847.45 2216.8 843.783C2217.53 840.117 2217.9 835.839 2217.9 830.95V816.467C2217.9 805.833 2215.09 798.439 2209.47 794.283C2203.97 790.006 2196.02 787.867 2185.63 787.867H2182.15V863.4Z" fill="url(#paint0_linear_89_5)"/>
<path d="M758.172 985H697.488V770.133H721.688C728.166 770.133 737.944 769.889 751.022 769.4C764.1 768.789 774.855 768.483 783.288 768.483C807 768.483 824.966 774.778 837.188 787.367C849.411 799.956 855.522 818.839 855.522 844.017C855.522 859.172 853.505 872.983 849.472 885.45C845.561 897.794 840.244 907.939 833.522 915.883C826.8 923.828 819.161 929.939 810.605 934.217C802.05 938.494 793.005 940.633 783.472 940.633C782.25 940.633 780.966 940.633 779.622 940.633C778.4 940.633 777.238 940.633 776.138 940.633C775.161 940.511 773.938 940.45 772.472 940.45C771.127 940.328 770.027 940.267 769.172 940.267C768.438 940.144 767.338 940.083 765.872 940.083C764.527 939.961 763.611 939.9 763.122 939.9C762.633 939.9 761.716 939.839 760.372 939.717C759.027 939.594 758.294 939.533 758.172 939.533V985ZM795.388 835.95C795.388 826.906 792.944 819.572 788.055 813.95C783.166 808.328 776.138 805.517 766.972 805.517H758.172V900.85H764.955C774.611 900.85 782.066 897.611 787.322 891.133C792.7 884.656 795.388 875.306 795.388 863.083V835.95ZM974.78 985L966.53 950.717H914.463L907.497 985H853.597L909.513 784.983L905.113 770.133H980.83L1042.06 985H974.78ZM938.113 833.2L921.98 913.317H957.547L938.113 833.2ZM1083.4 985V818.717H1040.5V770.133H1188.26V818.717H1145.36V985H1083.4ZM1265.2 985H1204.52V770.133H1265.2V855.2H1312.32V770.133H1373V985H1312.32V897.367H1265.2V985ZM1458.03 985H1397.34V770.133H1518.34V816.883L1458.03 813.217V863.083H1507.53V908.55L1458.03 904.883V985ZM1533.78 985V770.133H1596.3V985H1533.78ZM1679.62 985H1621.32V787.367L1612.33 770.133H1679.8L1713.53 839.8L1745.8 909.283L1736.82 827.7V770.133H1795.3V985H1739.38L1695.75 900.117L1668.8 846.95L1679.62 917.35V985ZM1892.46 954.933C1901.75 954.933 1908.84 949.189 1913.73 937.7C1918.74 926.211 1921.25 907.267 1921.25 880.867V862.35C1921.25 843.039 1918.92 828.128 1914.28 817.617C1909.64 807.106 1903.04 801.85 1894.48 801.85H1880.73V954.933H1892.46ZM1898.15 986.283C1893.75 986.283 1886.9 986.039 1877.61 985.55C1868.45 985.183 1858.97 985 1849.2 985H1820.05V770.133H1849.2C1857.39 770.011 1866.31 769.706 1875.96 769.217C1885.62 768.728 1893.2 768.483 1898.7 768.483C1929.86 768.483 1952.17 777.222 1965.61 794.7C1979.18 812.178 1985.96 837.661 1985.96 871.15C1985.96 882.517 1985.17 893.333 1983.58 903.6C1982.11 913.867 1979.3 924.194 1975.15 934.583C1970.99 944.85 1965.74 953.711 1959.38 961.167C1953.02 968.622 1944.59 974.672 1934.08 979.317C1923.57 983.961 1911.59 986.283 1898.15 986.283ZM2133.18 985H2003.2V770.133H2130.43L2126.77 813.4L2063.88 811.567V853H2113.38V895.9L2063.88 892.233V941L2133.18 939.167V985ZM2210.15 913.5V985H2149.28V770.133H2173.48C2179.35 770.133 2188.09 769.889 2199.7 769.4C2211.31 768.789 2220.9 768.483 2228.48 768.483C2254.88 768.483 2274.56 774.289 2287.52 785.9C2300.59 797.511 2307.13 815.294 2307.13 839.25C2307.13 853.428 2304.02 866.017 2297.78 877.017C2291.67 888.017 2283.54 896.756 2273.4 903.233C2278.9 904.578 2283.6 907.694 2287.52 912.583C2291.55 917.472 2294.67 923.278 2296.87 930C2299.07 936.6 2300.96 943.322 2302.55 950.167C2304.26 956.889 2306.15 963.55 2308.23 970.15C2310.43 976.75 2312.82 981.7 2315.38 985H2247.73C2246.39 983.289 2245.35 978.522 2244.62 970.7C2243.88 962.756 2242.84 953.283 2241.5 942.283C2240.28 931.161 2238.5 921.872 2236.18 914.417C2235.94 914.417 2235.63 914.417 2235.27 914.417C2232.94 914.417 2230.44 914.417 2227.75 914.417C2225.18 914.294 2222.92 914.172 2220.97 914.05C2219.01 913.928 2216.93 913.806 2214.73 913.683C2212.65 913.561 2211.13 913.5 2210.15 913.5ZM2210.15 879.4H2216.02C2219.07 879.4 2221.64 879.278 2223.72 879.033C2225.79 878.789 2228.05 878.361 2230.5 877.75C2233.07 877.017 2235.14 875.917 2236.73 874.45C2238.44 872.983 2240.03 871.089 2241.5 868.767C2242.97 866.444 2244.07 863.45 2244.8 859.783C2245.53 856.117 2245.9 851.839 2245.9 846.95V832.467C2245.9 821.833 2243.09 814.439 2237.47 810.283C2231.97 806.006 2224.02 803.867 2213.63 803.867H2210.15V879.4Z" fill="white"/>
<path d="M326.6 662.062H490.6L546.6 1142.06V1818.06L702.6 1630.06L766.6 1750.06L566.6 1898.06L213.682 1840.06L465.6 1077.06L213.682 970.062V878.062L434.6 1002.06L390.1 739.062L326.6 662.062Z" fill="#BE9F85"/>
<path d="M2640.91 779.263L2582.05 843.159L2634.83 1307.05L2737.46 1929.63L2652.93 1817.27L2648.18 1952.72L2742.43 2011.1L2860.28 1820.19L2654.03 1215.63L2728.2 1018.93L2714.23 934.201L2653.77 1134.47L2629.81 874.919L2640.91 779.263Z" fill="#BE9F85"/>
<path d="M270.518 642.062H434.518L490.518 1122.06V1798.06L646.518 1610.06L710.518 1730.06L510.518 1878.06L157.6 1820.06L409.518 1057.06L157.6 950.062V858.062L378.518 982.062L334.018 719.062L270.518 642.062Z" fill="#AB815E"/>
<path d="M2720.47 764.224L2627.86 864.764L2669.11 1341.17L2771.74 1963.75L2655.11 1886.24L2637.18 2035.99L2772.6 2049.69L2963.09 1779.92L2704.99 1231.65L2831 978.662L2817.03 893.932L2711.11 1143.57L2696.31 874.068L2720.47 764.224Z" fill="#AB815E"/>
<path d="M54.8997 677.454C301 733.699 928.196 655.082 861.053 459.701C810.221 354.121 78.7994 273.714 -27.3284 291.954C-121.447 291.954 -93.2309 329.392 -56.4469 378.2C-32.5776 409.872 -95 446.331 -95 480.454C-95 505.443 5.84659 516.825 -20.5472 558.092C-46.941 599.359 -27.8381 663.154 54.8997 677.454Z" fill="#FF6AF3"/>
<path d="M257.1 558.091C503.2 614.336 1130.4 535.719 1063.25 340.338C1012.42 234.758 281 154.351 174.872 172.591C80.7539 172.591 108.97 210.029 145.754 258.837C169.623 290.509 107.2 326.968 107.2 361.091C107.2 386.08 208.047 397.462 181.653 438.729C155.259 479.996 174.362 543.791 257.1 558.091Z" fill="#DA5BC9"/>
<path d="M619.352 379.454C373.252 435.699 -253.944 357.082 -186.801 161.701C-135.969 56.1211 595.453 -24.2857 701.58 -6.04636C795.699 -6.04636 767.483 31.3925 730.699 80.2002C706.83 111.872 769.252 148.331 769.252 182.454C769.252 207.443 668.405 218.825 694.799 260.092C721.193 301.359 702.09 365.154 619.352 379.454Z" fill="#FF6AF3"/>
<path d="M417.152 260.091C171.052 316.336 -456.145 237.719 -389.001 42.3379C-338.169 -63.2421 393.252 -143.649 499.38 -125.409C593.498 -125.409 565.282 -87.9707 528.498 -39.163C504.629 -7.49138 567.052 28.9678 567.052 63.0908C567.052 88.0796 466.205 99.4616 492.599 140.729C518.992 181.996 499.89 245.791 417.152 260.091Z" fill="#DA5BC9"/>
<path d="M2268.33 449.014C2200.31 563.214 2303.3 849.351 2546 814.216C2677.04 788.552 2771.19 451.063 2747.61 402.755C2746.85 359.556 2700.47 373.334 2640 391.296C2600.76 402.951 2554.86 375.106 2512.38 375.86C2481.27 376.412 2467.92 422.95 2416.33 411.748C2364.73 400.545 2285.46 410.723 2268.33 449.014Z" fill="#FF6AF3"/>
<path d="M2418.59 539.184C2350.57 653.383 2453.56 939.52 2696.26 904.385C2827.29 878.721 2921.44 541.233 2897.87 492.925C2897.1 449.726 2850.72 463.504 2790.26 481.465C2751.02 493.121 2705.12 465.275 2662.63 466.029C2631.52 466.581 2618.17 513.12 2566.58 501.918C2514.99 490.715 2435.72 500.893 2418.59 539.184Z" fill="#DA5BC9"/>
<path d="M1516.73 1601.42C1497.13 1695.4 1531.08 1933.42 1604.47 1906.57C1644.04 1886.53 1669.49 1607.8 1661.88 1567.56C1661.25 1531.76 1647.29 1542.74 1629.09 1557.06C1617.28 1566.35 1603.07 1542.85 1590.18 1543.08C1580.73 1543.25 1577.11 1581.68 1561.33 1571.92C1545.56 1562.16 1521.57 1569.85 1516.73 1601.42Z" fill="#FF6AF3"/>
<path d="M1563.21 1677.52C1543.61 1771.5 1577.56 2009.53 1650.95 1982.68C1690.52 1962.64 1715.97 1683.91 1708.36 1643.66C1707.73 1607.86 1693.77 1618.85 1675.57 1633.17C1663.76 1642.46 1649.55 1618.96 1636.66 1619.19C1627.21 1619.36 1623.59 1657.79 1607.81 1648.03C1592.04 1638.26 1568.05 1645.96 1563.21 1677.52Z" fill="#DA5BC9"/>
<path d="M221.725 1601.42C202.127 1695.4 236.076 1933.42 309.473 1906.57C349.037 1886.53 374.492 1607.8 366.881 1567.56C366.246 1531.76 352.285 1542.74 334.085 1557.06C322.275 1566.35 308.073 1542.85 295.175 1543.08C285.73 1543.25 282.109 1581.68 266.332 1571.92C250.556 1562.16 226.572 1569.85 221.725 1601.42Z" fill="#FF6AF3"/>
<path d="M268.207 1677.52C248.608 1771.5 282.558 2009.53 355.955 1982.68C395.519 1962.64 420.973 1683.91 413.363 1643.66C412.728 1607.86 398.767 1618.85 380.567 1633.17C368.757 1642.46 354.555 1618.96 341.657 1619.19C332.212 1619.36 328.59 1657.79 312.814 1648.03C297.038 1638.26 273.054 1645.96 268.207 1677.52Z" fill="#DA5BC9"/>
<path d="M2811.73 1554.42C2792.13 1648.4 2826.08 1886.42 2899.47 1859.57C2939.04 1839.53 2964.49 1560.8 2956.88 1520.56C2956.25 1484.76 2942.29 1495.74 2924.09 1510.06C2912.28 1519.35 2898.07 1495.85 2885.18 1496.08C2875.73 1496.25 2872.11 1534.68 2856.33 1524.92C2840.56 1515.16 2816.57 1522.85 2811.73 1554.42Z" fill="#FF6AF3"/>
<path d="M2858.21 1630.52C2838.61 1724.5 2872.56 1962.53 2945.95 1935.68C2985.52 1915.64 3010.97 1636.91 3003.36 1596.66C3002.73 1560.86 2988.77 1571.85 2970.57 1586.17C2958.76 1595.46 2944.55 1571.96 2931.66 1572.19C2922.21 1572.36 2918.59 1610.79 2902.81 1601.03C2887.04 1591.26 2863.05 1598.96 2858.21 1630.52Z" fill="#DA5BC9"/>
<path d="M27.7251 1637.42C8.12669 1731.4 42.0761 1969.42 115.473 1942.57C155.037 1922.53 180.492 1643.8 172.881 1603.56C172.246 1567.76 158.285 1578.74 140.085 1593.06C128.275 1602.35 114.073 1578.85 101.175 1579.08C91.7299 1579.25 88.1085 1617.68 72.3321 1607.92C56.5558 1598.16 32.5718 1605.85 27.7251 1637.42Z" fill="#FF6AF3"/>
<path d="M74.2069 1713.52C54.6084 1807.5 88.5578 2045.53 161.955 2018.68C201.519 1998.64 226.973 1719.91 219.363 1679.66C218.728 1643.86 204.767 1654.85 186.567 1669.17C174.757 1678.46 160.555 1654.96 147.657 1655.19C138.212 1655.36 134.59 1693.79 118.814 1684.03C103.038 1674.26 79.0535 1681.96 74.2069 1713.52Z" fill="#DA5BC9"/>
<path d="M1701.73 1703.42C1682.13 1797.4 1716.08 2035.42 1789.47 2008.57C1829.04 1988.53 1854.49 1709.8 1846.88 1669.56C1846.25 1633.76 1832.29 1644.74 1814.09 1659.06C1802.28 1668.35 1788.07 1644.85 1775.18 1645.08C1765.73 1645.25 1762.11 1683.68 1746.33 1673.92C1730.56 1664.16 1706.57 1671.85 1701.73 1703.42Z" fill="#FF6AF3"/>
<path d="M1748.21 1779.52C1728.61 1873.5 1762.56 2111.53 1835.95 2084.68C1875.52 2064.64 1900.97 1785.91 1893.36 1745.66C1892.73 1709.86 1878.77 1720.85 1860.57 1735.17C1848.76 1744.46 1834.55 1720.96 1821.66 1721.19C1812.21 1721.36 1808.59 1759.79 1792.81 1750.03C1777.04 1740.26 1753.05 1747.96 1748.21 1779.52Z" fill="#DA5BC9"/>
<path d="M406.725 1703.42C387.127 1797.4 421.076 2035.42 494.473 2008.57C534.037 1988.53 559.492 1709.8 551.881 1669.56C551.246 1633.76 537.285 1644.74 519.085 1659.06C507.275 1668.35 493.073 1644.85 480.175 1645.08C470.73 1645.25 467.109 1683.68 451.332 1673.92C435.556 1664.16 411.572 1671.85 406.725 1703.42Z" fill="#FF6AF3"/>
<path d="M453.207 1779.52C433.608 1873.5 467.558 2111.53 540.955 2084.68C580.519 2064.64 605.973 1785.91 598.363 1745.66C597.728 1709.86 583.767 1720.85 565.567 1735.17C553.757 1744.46 539.555 1720.96 526.657 1721.19C517.212 1721.36 513.59 1759.79 497.814 1750.03C482.038 1740.26 458.054 1747.96 453.207 1779.52Z" fill="#DA5BC9"/>
<path d="M2996.73 1656.42C2977.13 1750.4 3011.08 1988.42 3084.47 1961.57C3124.04 1941.53 3149.49 1662.8 3141.88 1622.56C3141.25 1586.76 3127.29 1597.74 3109.09 1612.06C3097.28 1621.35 3083.07 1597.85 3070.18 1598.08C3060.73 1598.25 3057.11 1636.68 3041.33 1626.92C3025.56 1617.16 3001.57 1624.85 2996.73 1656.42Z" fill="#FF6AF3"/>
<path d="M3043.21 1732.52C3023.61 1826.5 3057.56 2064.53 3130.95 2037.68C3170.52 2017.64 3195.97 1738.91 3188.36 1698.66C3187.73 1662.86 3173.77 1673.85 3155.57 1688.17C3143.76 1697.46 3129.55 1673.96 3116.66 1674.19C3107.21 1674.36 3103.59 1712.79 3087.81 1703.03C3072.04 1693.26 3048.05 1700.96 3043.21 1732.52Z" fill="#DA5BC9"/>
<path d="M1886.73 1645.94C1867.13 1739.92 1901.08 1977.95 1974.47 1951.1C2014.04 1931.06 2039.49 1652.32 2031.88 1612.08C2031.25 1576.28 2017.29 1587.27 1999.09 1601.58C1987.28 1610.87 1973.07 1587.38 1960.18 1587.61C1950.73 1587.77 1947.11 1626.21 1931.33 1616.44C1915.56 1606.68 1891.57 1614.38 1886.73 1645.94Z" fill="#FF6AF3"/>
<path d="M1933.21 1722.05C1913.61 1816.03 1947.56 2054.05 2020.95 2027.2C2060.52 2007.16 2085.97 1728.43 2078.36 1688.19C2077.73 1652.39 2063.77 1663.37 2045.57 1677.69C2033.76 1686.98 2019.55 1663.48 2006.66 1663.71C1997.21 1663.88 1993.59 1702.31 1977.81 1692.55C1962.04 1682.79 1938.05 1690.48 1933.21 1722.05Z" fill="#DA5BC9"/>
<path d="M591.725 1645.94C572.127 1739.92 606.076 1977.95 679.473 1951.1C719.037 1931.06 744.492 1652.32 736.881 1612.08C736.246 1576.28 722.285 1587.27 704.085 1601.58C692.275 1610.87 678.073 1587.38 665.175 1587.61C655.73 1587.77 652.109 1626.21 636.332 1616.44C620.556 1606.68 596.572 1614.38 591.725 1645.94Z" fill="#FF6AF3"/>
<path d="M638.207 1722.05C618.608 1816.03 652.558 2054.05 725.955 2027.2C765.519 2007.16 790.973 1728.43 783.363 1688.19C782.728 1652.39 768.767 1663.37 750.567 1677.69C738.757 1686.98 724.555 1663.48 711.657 1663.71C702.212 1663.88 698.59 1702.31 682.814 1692.55C667.038 1682.79 643.054 1690.48 638.207 1722.05Z" fill="#DA5BC9"/>
<path d="M2071.73 1541.42C2052.13 1635.4 2086.08 1873.42 2159.47 1846.57C2199.04 1826.53 2224.49 1547.8 2216.88 1507.56C2216.25 1471.76 2202.29 1482.74 2184.09 1497.06C2172.28 1506.35 2158.07 1482.85 2145.18 1483.08C2135.73 1483.25 2132.11 1521.68 2116.33 1511.92C2100.56 1502.16 2076.57 1509.85 2071.73 1541.42Z" fill="#FF6AF3"/>
<path d="M2118.21 1617.52C2098.61 1711.5 2132.56 1949.53 2205.95 1922.68C2245.52 1902.64 2270.97 1623.91 2263.36 1583.66C2262.73 1547.86 2248.77 1558.85 2230.57 1573.17C2218.76 1582.46 2204.55 1558.96 2191.66 1559.19C2182.21 1559.36 2178.59 1597.79 2162.81 1588.03C2147.04 1578.26 2123.05 1585.96 2118.21 1617.52Z" fill="#DA5BC9"/>
<path d="M776.725 1541.42C757.127 1635.4 791.076 1873.42 864.473 1846.57C904.037 1826.53 929.492 1547.8 921.881 1507.56C921.246 1471.76 907.285 1482.74 889.085 1497.06C877.275 1506.35 863.073 1482.85 850.175 1483.08C840.73 1483.25 837.109 1521.68 821.332 1511.92C805.556 1502.16 781.572 1509.85 776.725 1541.42Z" fill="#FF6AF3"/>
<path d="M823.207 1617.52C803.608 1711.5 837.558 1949.53 910.955 1922.68C950.519 1902.64 975.973 1623.91 968.363 1583.66C967.728 1547.86 953.767 1558.85 935.567 1573.17C923.757 1582.46 909.555 1558.96 896.657 1559.19C887.212 1559.36 883.59 1597.79 867.814 1588.03C852.038 1578.26 828.054 1585.96 823.207 1617.52Z" fill="#DA5BC9"/>
<path d="M2256.73 1644.99C2237.13 1738.97 2271.08 1976.99 2344.47 1950.15C2384.04 1930.1 2409.49 1651.37 2401.88 1611.13C2401.25 1575.33 2387.29 1586.31 2369.09 1600.63C2357.28 1609.92 2343.07 1586.42 2330.18 1586.65C2320.73 1586.82 2317.11 1625.25 2301.33 1615.49C2285.56 1605.73 2261.57 1613.42 2256.73 1644.99Z" fill="#FF6AF3"/>
<path d="M2303.21 1721.09C2283.61 1815.07 2317.56 2053.1 2390.95 2026.25C2430.52 2006.21 2455.97 1727.48 2448.36 1687.23C2447.73 1651.44 2433.77 1662.42 2415.57 1676.74C2403.76 1686.03 2389.55 1662.53 2376.66 1662.76C2367.21 1662.93 2363.59 1701.36 2347.81 1691.6C2332.04 1681.84 2308.05 1689.53 2303.21 1721.09Z" fill="#DA5BC9"/>
<path d="M961.725 1644.99C942.127 1738.97 976.076 1976.99 1049.47 1950.15C1089.04 1930.1 1114.49 1651.37 1106.88 1611.13C1106.25 1575.33 1092.29 1586.31 1074.09 1600.63C1062.28 1609.92 1048.07 1586.42 1035.18 1586.65C1025.73 1586.82 1022.11 1625.25 1006.33 1615.49C990.556 1605.73 966.572 1613.42 961.725 1644.99Z" fill="#FF6AF3"/>
<path d="M1008.21 1721.09C988.608 1815.07 1022.56 2053.1 1095.95 2026.25C1135.52 2006.21 1160.97 1727.48 1153.36 1687.23C1152.73 1651.44 1138.77 1662.42 1120.57 1676.74C1108.76 1686.03 1094.55 1662.53 1081.66 1662.76C1072.21 1662.93 1068.59 1701.36 1052.81 1691.6C1037.04 1681.84 1013.05 1689.53 1008.21 1721.09Z" fill="#DA5BC9"/>
<path d="M2450.73 1605.42C2431.13 1699.4 2465.08 1937.42 2538.47 1910.57C2578.04 1890.53 2603.49 1611.8 2595.88 1571.56C2595.25 1535.76 2581.29 1546.74 2563.09 1561.06C2551.28 1570.35 2537.07 1546.85 2524.18 1547.08C2514.73 1547.25 2511.11 1585.68 2495.33 1575.92C2479.56 1566.16 2455.57 1573.85 2450.73 1605.42Z" fill="#FF6AF3"/>
<path d="M2497.21 1681.52C2477.61 1775.5 2511.56 2013.53 2584.95 1986.68C2624.52 1966.64 2649.97 1687.91 2642.36 1647.66C2641.73 1611.86 2627.77 1622.85 2609.57 1637.17C2597.76 1646.46 2583.55 1622.96 2570.66 1623.19C2561.21 1623.36 2557.59 1661.79 2541.81 1652.03C2526.04 1642.26 2502.05 1649.96 2497.21 1681.52Z" fill="#DA5BC9"/>
<path d="M1155.73 1605.42C1136.13 1699.4 1170.08 1937.42 1243.47 1910.57C1283.04 1890.53 1308.49 1611.8 1300.88 1571.56C1300.25 1535.76 1286.29 1546.74 1268.09 1561.06C1256.28 1570.35 1242.07 1546.85 1229.18 1547.08C1219.73 1547.25 1216.11 1585.68 1200.33 1575.92C1184.56 1566.16 1160.57 1573.85 1155.73 1605.42Z" fill="#FF6AF3"/>
<path d="M1202.21 1681.52C1182.61 1775.5 1216.56 2013.53 1289.95 1986.68C1329.52 1966.64 1354.97 1687.91 1347.36 1647.66C1346.73 1611.86 1332.77 1622.85 1314.57 1637.17C1302.76 1646.46 1288.55 1622.96 1275.66 1623.19C1266.21 1623.36 1262.59 1661.79 1246.81 1652.03C1231.04 1642.26 1207.05 1649.96 1202.21 1681.52Z" fill="#DA5BC9"/>
<path d="M2626.73 1644.04C2607.13 1738.02 2641.08 1976.04 2714.47 1949.19C2754.04 1929.15 2779.49 1650.42 2771.88 1610.17C2771.25 1574.38 2757.29 1585.36 2739.09 1599.68C2727.28 1608.97 2713.07 1585.47 2700.18 1585.7C2690.73 1585.87 2687.11 1624.3 2671.33 1614.54C2655.56 1604.78 2631.57 1612.47 2626.73 1644.04Z" fill="#FF6AF3"/>
<path d="M2673.21 1720.14C2653.61 1814.12 2687.56 2052.15 2760.95 2025.3C2800.52 2005.26 2825.97 1726.52 2818.36 1686.28C2817.73 1650.48 2803.77 1661.46 2785.57 1675.78C2773.76 1685.07 2759.55 1661.58 2746.66 1661.81C2737.21 1661.97 2733.59 1700.41 2717.81 1690.64C2702.04 1680.88 2678.05 1688.58 2673.21 1720.14Z" fill="#DA5BC9"/>
<path d="M1331.73 1644.04C1312.13 1738.02 1346.08 1976.04 1419.47 1949.19C1459.04 1929.15 1484.49 1650.42 1476.88 1610.17C1476.25 1574.38 1462.29 1585.36 1444.09 1599.68C1432.28 1608.97 1418.07 1585.47 1405.18 1585.7C1395.73 1585.87 1392.11 1624.3 1376.33 1614.54C1360.56 1604.78 1336.57 1612.47 1331.73 1644.04Z" fill="#FF6AF3"/>
<path d="M1378.21 1720.14C1358.61 1814.12 1392.56 2052.15 1465.95 2025.3C1505.52 2005.26 1530.97 1726.52 1523.36 1686.28C1522.73 1650.48 1508.77 1661.46 1490.57 1675.78C1478.76 1685.07 1464.55 1661.58 1451.66 1661.81C1442.21 1661.97 1438.59 1700.41 1422.81 1690.64C1407.04 1680.88 1383.05 1688.58 1378.21 1720.14Z" fill="#DA5BC9"/>
</g>
<defs>
<linearGradient id="paint0_linear_89_5" x1="655" y1="850" x2="2323" y2="846" gradientUnits="userSpaceOnUse">
<stop stop-color="#00FFBF"/>
<stop offset="1" stop-color="#002FFF"/>
</linearGradient>
<clipPath id="clip0_89_5">
<rect width="3000" height="1800" fill="white"/>
</clipPath>
</defs>
</svg>
