<svg width="3000" height="1800" viewBox="0 0 3000 1800" fill="none" xmlns="http://www.w3.org/2000/svg">
<rect width="3000" height="1800" fill="#8B70C2"/>
<rect x="1925.76" y="177" width="588.716" height="678" fill="#5E376D"/>
<path d="M1846 517.29L1941.52 177V855L1846 517.29Z" fill="#5E376D"/>
<path d="M2599.52 517.29L2504 177V855L2599.52 517.29Z" fill="#5E376D"/>
<rect x="1987.44" y="912" width="445.311" height="526" fill="#5E376D"/>
<path d="M1926 1176L1998.25 912V1438L1926 1176Z" fill="#5E376D"/>
<path d="M2494.25 1176L2422 912V1438L2494.25 1176Z" fill="#5E376D"/>
<rect x="1312.44" y="940" width="445.311" height="526" fill="#F7E851"/>
<path d="M1820.25 1204L1748 940V1466L1820.25 1204Z" fill="#F7E851"/>
<rect x="2014.6" y="348" width="390.968" height="336" fill="#F7E851"/>
<path d="M1967 516.639L2030.43 348V684L1967 516.639Z" fill="#F7E851"/>
<path d="M2453.43 516.639L2390 348V684L2453.43 516.639Z" fill="#F7E851"/>
<rect x="384.083" y="241" width="523.052" height="595" fill="#F7E851"/>
<path d="M312 539.632L396.865 241V836L312 539.632Z" fill="#F7E851"/>
<path d="M981.865 539.632L897 241V836L981.865 539.632Z" fill="#F7E851"/>
<rect x="991.764" y="303" width="588.716" height="427" fill="#5E376D"/>
<path d="M918 517.312L1013.52 303V730L918 517.312Z" fill="#5E376D"/>
<path d="M1653.52 517.312L1558 303V730L1653.52 517.312Z" fill="#5E376D"/>
<rect x="382.022" y="516" width="965.34" height="1040" fill="#5E376D"/>
<path d="M253 1037.98L409.627 516L409.627 1556L253 1037.98Z" fill="#5E376D"/>
<path d="M1473.9 1037.98L1317.27 516V1556L1473.9 1037.98Z" fill="#5E376D"/>
<rect x="596" y="450" width="1756" height="900" fill="#D4BBDD"/>
<path d="M461 901.712L614 450V1350L461 901.712Z" fill="#D4BBDD"/>
<path d="M2482 901.712L2329 450V1350L2482 901.712Z" fill="#D4BBDD"/>
<path d="M1277.95 746.8C1282.35 745.733 1286.81 745.133 1291.35 745C1295.88 744.733 1300.21 744.6 1304.35 744.6C1308.21 744.6 1312.81 744.933 1318.15 745.6C1323.61 746.133 1328.41 747.133 1332.55 748.6L1334.95 752L1259.35 1020C1252.28 1020.8 1244.41 1021.33 1235.75 1021.6C1227.08 1022 1218.81 1022.2 1210.95 1022.2C1199.48 1022.2 1190.48 1020.33 1183.95 1016.6C1177.41 1012.87 1172.61 1005.53 1169.55 994.6L1102.15 752.2C1107.61 749.8 1113.41 747.733 1119.55 746C1125.81 744.267 1132.28 743.4 1138.95 743.4C1148.01 743.4 1155.08 745.8 1160.15 750.6C1165.21 755.4 1169.08 763.067 1171.75 773.6L1203.95 891.6C1206.08 899.2 1208.08 907.133 1209.95 915.4C1211.81 923.533 1213.55 931.733 1215.15 940C1216.75 948.133 1218.21 956.067 1219.55 963.8C1219.95 965.933 1220.41 967.267 1220.95 967.8C1221.61 968.333 1222.55 968.6 1223.75 968.6L1277.95 746.8ZM1563.57 830.8C1563.57 843.6 1561.1 854.933 1556.17 864.8C1551.37 874.667 1545.17 882.933 1537.57 889.6C1530.1 896.133 1522.37 900.933 1514.37 904C1521.84 906.533 1528.04 911.067 1532.97 917.6C1537.9 924.133 1541.9 931.733 1544.97 940.4L1557.77 976C1560.04 982.533 1562.77 988.267 1565.97 993.2C1569.3 998 1573.04 1002.07 1577.17 1005.4C1573.44 1010.6 1567.77 1014.93 1560.17 1018.4C1552.57 1021.73 1544.77 1023.4 1536.77 1023.4C1525.7 1023.4 1517.64 1020.47 1512.57 1014.6C1507.64 1008.6 1503.1 999.733 1498.97 988L1483.77 944.6C1481.37 937.4 1477.7 931.267 1472.77 926.2C1467.97 921 1460.1 918.4 1449.17 918.4H1405.57V872.6C1410.77 872.333 1417.17 872.067 1424.77 871.8C1432.5 871.533 1439.84 871.333 1446.77 871.2C1453.7 870.933 1458.77 870.8 1461.97 870.8C1472.5 870.8 1480.57 868.933 1486.17 865.2C1491.9 861.333 1495.84 856.333 1497.97 850.2C1500.1 844.067 1501.17 837.6 1501.17 830.8C1501.17 823.6 1500.1 817 1497.97 811C1495.84 805 1491.9 800.2 1486.17 796.6C1480.57 792.867 1472.5 791 1461.97 791C1459.17 791 1456.04 791 1452.57 791C1449.1 791 1445.5 791 1441.77 791C1438.04 790.867 1434.24 790.733 1430.37 790.6V1020C1425.3 1020.93 1420.04 1021.53 1414.57 1021.8C1409.1 1022.07 1404.24 1022.2 1399.97 1022.2C1396.24 1022.2 1391.5 1022.07 1385.77 1021.8C1380.04 1021.53 1374.7 1020.93 1369.77 1020V748.8L1372.57 746.2C1389.37 745.8 1405.57 745.467 1421.17 745.2C1436.77 744.8 1452.04 744.6 1466.97 744.6C1485.5 744.6 1502.04 747.667 1516.57 753.8C1531.1 759.8 1542.57 769.2 1550.97 782C1559.37 794.667 1563.57 810.933 1563.57 830.8ZM1851.77 746.8C1856.17 745.733 1860.64 745.133 1865.17 745C1869.71 744.733 1874.04 744.6 1878.17 744.6C1882.04 744.6 1886.64 744.933 1891.97 745.6C1897.44 746.133 1902.24 747.133 1906.37 748.6L1908.77 752L1833.17 1020C1826.11 1020.8 1818.24 1021.33 1809.57 1021.6C1800.91 1022 1792.64 1022.2 1784.77 1022.2C1773.31 1022.2 1764.31 1020.33 1757.77 1016.6C1751.24 1012.87 1746.44 1005.53 1743.37 994.6L1675.97 752.2C1681.44 749.8 1687.24 747.733 1693.37 746C1699.64 744.267 1706.11 743.4 1712.77 743.4C1721.84 743.4 1728.91 745.8 1733.97 750.6C1739.04 755.4 1742.91 763.067 1745.57 773.6L1777.77 891.6C1779.91 899.2 1781.91 907.133 1783.77 915.4C1785.64 923.533 1787.37 931.733 1788.97 940C1790.57 948.133 1792.04 956.067 1793.37 963.8C1793.77 965.933 1794.24 967.267 1794.77 967.8C1795.44 968.333 1796.37 968.6 1797.57 968.6L1851.77 746.8ZM2005.8 1020C1997 1021.47 1987.07 1022.2 1976 1022.2C1965.2 1022.2 1955.27 1021.47 1946.2 1020V885.6C1946.2 878.933 1944.8 873.467 1942 869.2C1939.33 864.933 1934.47 862.8 1927.4 862.8H1921.8C1920.07 856.267 1919.2 849.533 1919.2 842.6C1919.2 839.267 1919.4 835.733 1919.8 832C1920.2 828.133 1920.87 824.467 1921.8 821C1927.67 820.333 1933.67 819.867 1939.8 819.6C1946.07 819.2 1951.27 819 1955.4 819H1963.8C1976.6 819 1986.8 823.2 1994.4 831.6C2002 839.867 2005.8 851.067 2005.8 865.2V1020ZM1934 764.8C1934 756.8 1935.53 749.333 1938.6 742.4C1941.93 740.667 1946.2 739.2 1951.4 738C1956.73 736.8 1962 736.2 1967.2 736.2C1972.27 736.2 1977.53 736.8 1983 738C1988.6 739.2 1992.87 740.667 1995.8 742.4C1997.27 745.733 1998.4 749.467 1999.2 753.6C2000 757.6 2000.4 761.333 2000.4 764.8C2000.4 772.667 1998.87 780.2 1995.8 787.4C1992.87 789.133 1988.6 790.6 1983 791.8C1977.53 792.867 1972.27 793.4 1967.2 793.4C1962 793.4 1956.67 792.867 1951.2 791.8C1945.73 790.6 1941.53 789.133 1938.6 787.4C1935.53 780.2 1934 772.667 1934 764.8ZM2099.17 901.8C2103.83 895.4 2109.23 888.733 2115.37 881.8C2121.5 874.867 2126.83 868.867 2131.37 863.8L2130.17 862C2125.37 862.533 2119.97 863.067 2113.97 863.6C2108.1 864 2102.17 864.333 2096.17 864.6C2090.3 864.867 2084.9 865 2079.97 865H2047.57C2046.9 862.067 2046.37 859 2045.97 855.8C2045.7 852.6 2045.57 849.533 2045.57 846.6C2045.57 842.2 2045.83 837.8 2046.37 833.4C2047.03 829 2047.83 824.733 2048.77 820.6H2187.57C2190.1 827.933 2192.03 834.2 2193.37 839.4C2194.7 844.467 2195.37 849.133 2195.37 853.4C2195.37 856.2 2194.9 859.267 2193.97 862.6C2193.03 865.8 2191.57 868.733 2189.57 871.4L2138.37 939.2C2133.83 945.067 2128.9 951.267 2123.57 957.8C2118.23 964.333 2113.03 970.267 2107.97 975.6L2109.17 977.4C2115.03 976.733 2120.63 976.2 2125.97 975.8C2131.43 975.4 2136.63 975.2 2141.57 975.2H2156.17C2162.7 975.2 2169.3 974.8 2175.97 974C2182.77 973.067 2188.83 971.333 2194.17 968.8C2198.3 978.133 2200.37 986.333 2200.37 993.4C2200.37 1001.4 2197.97 1007.87 2193.17 1012.8C2188.5 1017.6 2180.1 1020 2167.97 1020H2047.57C2045.03 1012.8 2043.23 1007 2042.17 1002.6C2041.23 998.067 2040.77 994.067 2040.77 990.6C2040.77 987.267 2041.37 983.8 2042.57 980.2C2043.9 976.467 2046.17 972.533 2049.37 968.4L2099.17 901.8Z" fill="#383838"/>
<path fill-rule="evenodd" clip-rule="evenodd" d="M812.5 692.526C811.842 692.526 811.27 692.948 810.127 693.791L732.485 751.019C732.305 751.152 732.215 751.219 732.118 751.274C732.021 751.33 731.919 751.375 731.714 751.465L643.332 790.09C642.029 790.659 641.378 790.944 641.05 791.513C640.721 792.082 640.8 792.789 640.958 794.201L651.699 890.055C651.724 890.277 651.736 890.388 651.736 890.5C651.736 890.612 651.724 890.723 651.699 890.945L640.958 986.799C640.8 988.211 640.721 988.918 641.05 989.487C641.378 990.056 642.029 990.341 643.332 990.91L731.714 1029.54C731.919 1029.62 732.021 1029.67 732.118 1029.73C732.215 1029.78 732.305 1029.85 732.485 1029.98L810.127 1087.21C811.27 1088.05 811.842 1088.47 812.5 1088.47C813.157 1088.47 813.729 1088.05 814.873 1087.21L892.515 1029.98L892.516 1029.98C892.695 1029.85 892.785 1029.78 892.882 1029.73C892.979 1029.67 893.081 1029.62 893.286 1029.54L981.668 990.91C982.97 990.341 983.621 990.056 983.95 989.487C984.279 988.918 984.2 988.211 984.042 986.799L973.301 890.945L973.301 890.944C973.276 890.722 973.264 890.611 973.264 890.5C973.264 890.389 973.276 890.278 973.301 890.056L973.301 890.055L984.042 794.201C984.2 792.789 984.279 792.082 983.95 791.513C983.621 790.944 982.97 790.659 981.668 790.09L893.286 751.465C893.081 751.375 892.979 751.33 892.882 751.274C892.785 751.219 892.695 751.152 892.515 751.019L814.873 693.791C813.729 692.948 813.157 692.526 812.5 692.526ZM812.5 962.667C852.356 962.667 884.667 930.357 884.667 890.5C884.667 850.643 852.356 818.333 812.5 818.333C772.643 818.333 740.333 850.643 740.333 890.5C740.333 930.357 772.643 962.667 812.5 962.667Z" fill="#383838"/>
</svg>
