<?xml version="1.0" standalone="no"?>
<!DOCTYPE svg PUBLIC "-//W3C//DTD SVG 20010904//EN"
 "http://www.w3.org/TR/2001/REC-SVG-20010904/DTD/svg10.dtd">
<svg version="1.0" xmlns="http://www.w3.org/2000/svg"
 width="700.000000pt" height="700.000000pt" viewBox="0 0 700.000000 700.000000"
 preserveAspectRatio="xMidYMid meet">
<metadata>
Created by potrace 1.14, written by Peter Selinger 2001-2017
</metadata>
<g transform="translate(0.000000,700.000000) scale(0.100000,-0.100000)"
fill="#000000" stroke="none">
<path d="M3308 6995 c-2 -2 -43 -6 -93 -9 -49 -4 -103 -9 -120 -11 -16 -2 -52
-6 -80 -9 -27 -4 -59 -8 -71 -11 -12 -3 -39 -7 -60 -10 -21 -4 -55 -10 -74
-15 -19 -5 -51 -12 -70 -15 -90 -15 -435 -120 -527 -160 -18 -8 -48 -22 -67
-30 -19 -8 -37 -15 -41 -15 -13 0 -309 -152 -384 -198 -79 -47 -242 -153 -251
-162 -3 -3 -41 -32 -85 -65 -44 -32 -88 -66 -97 -75 -9 -8 -41 -35 -72 -60
-54 -44 -300 -289 -364 -362 -129 -149 -320 -424 -419 -605 -70 -127 -152
-307 -203 -443 -48 -131 -52 -141 -56 -155 -1 -5 -16 -55 -33 -110 -35 -113
-97 -407 -107 -505 -3 -36 -8 -67 -9 -70 -8 -14 -19 -235 -19 -390 0 -337 26
-551 106 -870 207 -824 716 -1550 1424 -2032 185 -126 460 -274 649 -348 161
-64 442 -152 530 -166 17 -3 44 -9 60 -14 42 -12 218 -41 335 -54 178 -20 461
-27 618 -15 434 35 800 124 1167 284 131 57 318 152 367 186 14 11 29 19 33
19 8 0 113 69 235 154 224 157 585 497 688 648 9 13 19 25 22 28 19 16 230
312 230 323 0 2 24 44 54 94 99 163 223 432 282 613 84 254 132 459 165 710
28 218 31 667 5 820 -3 14 -7 52 -11 85 -3 33 -10 78 -15 100 -5 22 -11 58
-15 80 -8 59 -50 233 -79 330 -10 33 -19 67 -21 75 -5 25 -73 206 -111 299
-49 118 -120 258 -212 421 -29 51 -180 279 -196 296 -6 7 -20 24 -31 40 -83
117 -338 390 -495 530 -111 99 -452 344 -479 344 -5 0 -11 4 -13 8 -8 21 -302
169 -477 241 -163 67 -429 151 -551 175 -14 3 -59 12 -100 20 -115 22 -260 43
-357 52 -62 6 -500 13 -505 9z"/>
</g>
</svg>
